<?xml version="1.0" encoding="utf-8"?>
<!-- Generator: Adobe Illustrator 26.0.1, SVG Export Plug-In . SVG Version: 6.00 Build 0)  -->
<svg version="1.1" id="Layer_1" xmlns="http://www.w3.org/2000/svg" xmlns:xlink="http://www.w3.org/1999/xlink" x="0px" y="0px"
	 viewBox="0 0 16 16" style="enable-background:new 0 0 16 16;" xml:space="preserve">
<style type="text/css">
	.st0{fill:#FF6200;}
	.st1{fill:#131921;}
	.st2{fill:#F7EEEB;}
</style>
<g>
	<path class="st0" d="M13.2,15.8H2.8c-0.5,0-0.9-0.4-0.9-0.9V1.1c0-0.5,0.4-0.9,0.9-0.9h10.4c0.5,0,0.9,0.4,0.9,0.9v13.9
		C14.1,15.4,13.7,15.8,13.2,15.8z"/>
	<g>
		<path class="st1" d="M13.2,15.9H2.8c-0.5,0-0.9-0.4-0.9-0.9V1c0-0.5,0.4-0.9,0.9-0.9h10.5c0.5,0,0.9,0.4,0.9,0.9V15
			C14.1,15.5,13.7,15.9,13.2,15.9z M2.8,0.3C2.3,0.3,2,0.6,2,1V15c0,0.4,0.3,0.8,0.8,0.8h10.5c0.4,0,0.8-0.3,0.8-0.8V1
			c0-0.4-0.3-0.8-0.8-0.8H2.8z"/>
	</g>
	<g>
		<g>
			<path class="st2" d="M6.2,9.6C6.2,9.6,6.2,9.6,6.2,9.6c0.2-0.3,0.5-0.5,0.7-0.8c0,0,0-0.1-0.1-0.1l0,0c0,0,0-0.1,0-0.1
				c0,0,0,0,0,0C6.6,8.9,6.4,9.2,6,9.6C6,9.2,5.9,9,5.9,8.7C5.8,8.4,5.8,8.2,5.7,8C5.6,7.9,5.4,7.7,5.2,7.7V7.3
				c0-0.3,0.2-0.6,0.6-0.6V6.6H4v0.1c0.3,0,0.6,0.3,0.6,0.6v3.8c0,0.3-0.2,0.6-0.6,0.6v0.1h1.8v-0.1c-0.3,0-0.6-0.3-0.6-0.6V7.8
				c0.2,0,0.3,0.2,0.4,0.3C5.7,8.3,5.8,9,5.9,9.7c0.2,0.8,0.4,1.8,0.8,2.5c0,0,0,0,0,0v-0.3c-0.3-0.7-0.5-1.5-0.7-2.2
				C6.1,9.7,6.1,9.7,6.2,9.6z"/>
			<path class="st2" d="M11.1,12.3c-0.1,0-0.1,0-0.2,0c0,0-0.1,0-0.1,0c-0.2,0-0.5,0.1-0.7,0.2c0,0-0.1,0-0.1,0.1
				c-0.1,0-0.2,0.1-0.3,0.1c-0.6,0.2-1.1,0.4-1.7,0.3c-0.1,0-0.2,0-0.2-0.1c0,0-0.1,0-0.1-0.1c-0.3-0.1-0.5-0.4-0.7-0.7c0,0,0,0,0,0
				v0.3c0.2,0.3,0.4,0.5,0.7,0.7c0,0,0.1,0,0.1,0.1c0,0,0.1,0,0.1,0c0.7,0.3,1.4,0.1,2-0.1c0,0,0,0,0,0c0,0,0.1,0,0.1,0
				c0.3-0.1,0.5-0.1,0.8-0.2c0,0,0.1,0,0.1,0c0.1,0,0.2,0,0.3,0c0.5,0,0.8,0.3,0.6,0.8h0.1C12.3,13.1,11.9,12.3,11.1,12.3z"/>
			<path class="st2" d="M9.9,13.1c0,0.1,0,0.1,0,0.2c-0.3,0.8-0.9,1.5-1.7,1.5H7.5v-3.5h0l-0.1-0.1l0-0.1v-0.1l0,0
				c0-0.1,0-0.1,0.1-0.2l0,0l0,0l0,0c0,0,0-0.1,0-0.1H7.4c0,0,0-0.4,0-0.5c0,0,0,0,0,0C7.2,9.9,7.1,9.9,7,9.9h0.4c0,0,0-0.1,0-0.1
				h-1v0.1c0.3,0,0.6,0.3,0.6,0.6v3.8c0,0.3-0.2,0.6-0.6,0.6v0.1h2c1.2,0,2-0.8,2.3-1.8c0,0,0-0.1,0-0.1c0.1-0.2,0.1-0.4,0.1-0.6
				c-0.2,0-0.5,0.1-0.7,0.2C10,12.7,10,12.9,9.9,13.1z"/>
			<path class="st2" d="M9.3,10.3c0.3,0.2,0.4,0.5,0.6,0.9C10,11.4,10,11.7,10,12c0,0.1,0,0.3,0,0.4c0.2-0.1,0.5-0.2,0.7-0.2
				c0-0.1,0-0.2,0-0.2c0-0.3-0.1-0.6-0.2-0.8c-0.2-0.5-0.6-1-1.2-1.2c0,0-0.1,0-0.1,0c-0.1,0-0.2,0-0.2-0.1c0,0.1-0.1,0.1-0.1,0.2
				c0.1,0,0.2,0.1,0.3,0.2C9.3,10.2,9.3,10.2,9.3,10.3z"/>
			<path class="st2" d="M9.2,11.5V9c0,0.3-0.1,0.6-0.2,0.8c0,0.1-0.1,0.1-0.1,0.2c0,0.1-0.1,0.1-0.1,0.2c-0.1,0.1-0.1,0.2-0.2,0.3v1
				c0,0.3-0.2,0.6-0.6,0.6v0.1h1.8v-0.1C9.4,12.1,9.2,11.8,9.2,11.5z"/>
			<path class="st2" d="M11.1,7.3C10.8,7.1,10.3,7,9.8,7H9.4c0,0,0,0,0,0.1l0,0h0.3c0.5,0,0.9,0.2,1.2,0.5C11.3,8,11.3,8.5,11.2,9
				c-0.1,0.3-0.4,0.6-0.6,0.7c-0.3,0.1-0.4-0.1-0.6-0.3C9.9,9.1,9.8,8.9,9.8,8.7c0,0-0.1,0.1-0.1,0.1C9.8,9,9.8,9.2,9.8,9.4
				c0.1,0.4,0.4,0.8,0.9,0.7c0.5,0,0.9-0.4,1-0.9C11.9,8.5,11.8,7.7,11.1,7.3z"/>
		</g>
		<g>
			<g>
				<g>
					<path class="st1" d="M9,8.7c0,0.5-0.2,0.9-0.4,1.3c-0.3,0.4-0.6,0.7-1,1c0.6-0.4,1-1.1,1.2-1.8c0.1-0.4,0-0.9-0.1-1.3
						C8.5,7.5,8.3,7.1,8.2,6.7C8.1,6.4,8,6.2,7.9,6C7.8,5.6,7.8,5.2,7.8,4.7c0-0.1,0-0.5,0-0.9c0,0,0,0,0,0c0,0,0,0,0,0
						C7.8,4,7.7,4.2,7.6,4.4C7.3,5.4,7,6.5,7.1,7.6c0,0,0,0,0,0.1c0,0.3,0.1,0.7,0.3,1c0.1,0.3,0.3,0.7,0.3,1c0.1,0.2,0.1,0.5,0,0.7
						c0,0.1,0,0.3-0.1,0.4c0,0.1-0.1,0.2-0.1,0.3c0,0,0,0,0,0c0,0,0,0,0,0c0-0.1,0.1-0.2,0.1-0.3c0,0,0,0,0,0c0-0.3,0-0.8,0-0.9
						c0,0,0,0,0,0c0,0,0,0,0,0c0,0-0.1,0.5-0.1,0.5c0,0,0,0,0,0c0,0,0-0.2,0-0.3c0,0,0,0,0-0.1c0-0.2-0.1-0.3-0.1-0.5
						C7.4,9.3,7.3,9.2,7.2,9C7.2,8.9,7.1,8.7,7.1,8.6c0,0,0-0.1,0-0.1c-0.3-1-0.3-2.1,0-3.1c0.1-0.5,0.3-1,0.5-1.5
						c0.2-0.5,0.4-1.1,0.8-2c0,0,0,0,0,0c0,0,0,0,0,0c0,0.2-0.1,0.5-0.1,0.7c0,0.2,0,0.5-0.1,0.7c0,0.5,0,1-0.1,1.5
						c0,0.5,0,0.9,0.1,1.4C8.5,7,9,7.8,9,8.7z"/>
				</g>
			</g>
			<g>
				<g>
					<g>
						<g>
							<path class="st1" d="M7.1,3.5C7.1,4,7,4.5,6.7,5c-0.2,0.5-0.3,1-0.3,1.4c0,0.2,0,0.4,0.1,0.6C6.4,6.8,6.4,6.6,6.3,6.4
								c-0.1-0.5,0-1,0.2-1.5C6.7,4.4,6.9,3.9,7,3.5C7,3.2,7,3,7,2.8C7.1,3,7.1,3.2,7.1,3.5z"/>
						</g>
					</g>
					<g>
						<path class="st1" d="M9,4.3C8.9,4.2,8.8,4.1,8.8,3.9C8.6,3.6,8.6,3.2,8.6,2.7c0.1-0.4,0.1-0.8,0.1-1.2c0-0.2,0-0.3-0.1-0.4
							c0.1,0.1,0.1,0.3,0.1,0.4c0.1,0.4,0.1,0.8,0,1.2c-0.1,0.4-0.1,0.8,0,1.2C8.9,4.1,8.9,4.2,9,4.3z"/>
					</g>
					<g>
						<g>
							<path class="st1" d="M9.6,8.6C9.5,8.7,9.4,8.8,9.3,8.9c0.1-0.1,0.1-0.3,0.2-0.4c0.1-0.3,0-0.6-0.1-0.8c0,0,0-0.1-0.1-0.1
								c0,0,0,0,0,0c0,0,0,0,0,0c0-0.1-0.1-0.1-0.1-0.2l0,0C9,7.1,9,6.9,9,6.8C9,6.6,9,6.5,9.1,6.4c0,0.1,0,0.3,0,0.4
								c0,0.1,0.1,0.3,0.1,0.4l0,0c0,0,0,0,0,0l0,0c0,0,0,0.1,0.1,0.1c0,0.1,0.1,0.1,0.1,0.2c0.1,0.1,0.2,0.3,0.2,0.5
								C9.7,8.3,9.6,8.4,9.6,8.6z"/>
						</g>
					</g>
				</g>
			</g>
		</g>
	</g>
</g>
</svg>
