<?xml version="1.0" encoding="utf-8"?>
<!-- Generator: Adobe Illustrator 26.0.1, SVG Export Plug-In . SVG Version: 6.00 Build 0)  -->
<svg version="1.1" id="Layer_1" xmlns="http://www.w3.org/2000/svg" xmlns:xlink="http://www.w3.org/1999/xlink" x="0px" y="0px"
	 viewBox="0 0 1000 1000" style="enable-background:new 0 0 1000 1000;" xml:space="preserve">
<style type="text/css">
	.st0{fill:#FF6200;}
	.st1{fill:#131921;}
	.st2{fill:#F7EEEB;}
	.st3{fill:none;}
	.st4{fill:url(#XMLID_00000047759049911352304100000002504469824847091859_);}
	.st5{fill:url(#XMLID_00000112623331945977873860000008799721246993479598_);}
</style>
<g>
	<g>
		<g>
			<path class="st2" d="M393.5,602c-0.1-1.8-0.5-3.6-1.1-5.3c-1.9-4.9-6.3-8.6-13.7-8.6h-13.3v0.5c2.1,0,3.5,1.9,3.5,3.7v24
				c0,1.8-1.5,3.7-3.5,3.7v0.5h12.6C388.2,620.5,394,610.8,393.5,602z M376.8,619.7h-3.7v-27.2c0-1.8-1.5-3.7-3.5-3.7h7.7
				c5.8,0,9.2,3.4,10.8,7.9c0.6,1.7,0.9,3.7,0.9,5.6C389.2,610.7,384.6,619.7,376.8,619.7z"/>
			<path class="st2" d="M402.3,616.6v-14.8c0-3.2-1.6-5.1-5.3-5.1h-1.4v0.5c1.8,0,2.9,1.3,2.9,3.4v14.8c0,3.2,1.6,5.1,5.3,5.1h1.4
				V620C403.5,620,402.3,618.6,402.3,616.6z M424.2,596.7c-0.6,1.3-1.5,1.4-3.2,0.9l-1.4-0.5c-0.9-0.2-1.7-0.4-2.5-0.4
				c-3.1,0-4.9,3.1-5.1,5.1c0-2.3-0.8-4.1-3.1-4.8c-1.7-0.6-3.4-0.6-5.1-1.1c-0.9-0.3-1.9-0.8-2.7-1.4c-0.9-0.5-1.6-1.2-1.9-2
				c0.3,0.1,0.7,0.2,1,0.2c1.3,0,2.4-1,2.4-2.4c0-1.3-1-2.4-2.4-2.4c-1.3,0-2.4,1.1-2.4,2.4c0,2,1.3,3.5,2.9,4.6
				c1,0.6,1.8,1.1,2.9,1.5c1.3,0.4,3.3,0.7,4,2c0.4,0.5,0.5,1.3,0.5,2.1v14.8c0,3.2,1.6,5.1,5.4,5.1h1.3v-0.5
				c-1.8,0-2.9-1.3-2.9-3.4v-11.7c0-1.3,0.4-3,1.3-4.1c0.7-0.9,1.5-1.2,2.3-1.2c0.8,0,1.6,0.2,2.4,0.4c3.4,1.1,5.8-0.8,6.6-3.1
				L424.2,596.7z"/>
			<path class="st2" d="M430.1,614.2c-1.4-2-1.4-4.2-0.2-5.6c0.8-0.9,2-1.5,3.6-1.5c1.9,0,3.9,0.7,5.6,0.8c2.6,0.3,4.3-0.8,5.1-2.2
				c1.2-2,0.7-5-1.7-7c-1.5-1.2-3.6-2-6.5-2c-6.5,0-11.8,5.3-11.8,11.9c0,6.5,5.3,11.9,11.9,11.9c3.3,0,6.3-1.4,8.4-3.5l-0.4-0.5
				C439.6,620.4,433.7,618.9,430.1,614.2z M427.4,608.6c-0.9-4.1,0.2-8,3.1-9.7c3.1-1.8,6.5-0.6,8.7,1.4c1.5,1.4,2.4,3.1,2.2,4.4
				c-0.2,1.1-1.1,1.9-2.9,2c-1.6,0.1-3.3-0.3-4.9-0.3c-1.7,0-3.2,0.6-4.1,1.7c-0.7,0.8-1.1,1.8-1.1,3.1
				C427.9,610.4,427.6,609.4,427.4,608.6z"/>
			<path class="st2" d="M478.6,617.1c-0.6,0.3-1.1,0.4-1.8,0.7c-2.3,0.6-3.7-1.1-3.7-2.7c0-1.3,1-2.6,3.1-2.6v-15h5.9v-0.7h-9.4
				c2,0,3.5-1.9,3.5-3.7c0-6.2-4.9-9-8.5-9c-4.3,0-7.7,3.1-7.7,7.6c0,2.1,0.9,4.1,2.3,5.4c-0.9-0.2-1.7-0.3-2.8-0.3
				c-6.5,0-11.9,5.3-11.9,11.9c0,6.5,5.3,11.9,11.9,11.9c3.3,0,6.2-1.4,8.4-3.5l-0.4-0.5c-4.9,4.2-11.6,2-15-3.9
				c-3.1-5.3-2.5-11.5,1.4-13.7c3.6-1.8,5.9,0.6,7.5,1.5c3.6,1.9,6.7,0,6.4-3.5l-0.4-0.2c-0.4,1-1.1,1.2-2.1,1.1
				c-1.3-0.1-2.6-1.2-3.4-2.2c-0.8-1.1-1.2-2.5-1.3-4c0-4,3.2-6.5,6.5-6.5c4.3,0,7,3.9,6.9,7.5c0,3.1-1.7,4-4.6,4v0.7h2.9v17.7
				c0,3,1.8,5.3,4.9,5.3c2.1,0,4.4-2,5.4,0l0.4-0.3C482.9,618,481.9,615.7,478.6,617.1z"/>
			<path class="st2" d="M519.4,590c-2-1.2-4.8-1.9-8.5-1.9h-11v0.5c2,0,3.5,1.9,3.5,3.7v24c0,1.8-1.5,3.7-3.5,3.7v0.5h11.1V620
				c-2,0-3.5-1.9-3.5-3.7v-20.9c1.1,0.2,1.8,0.9,2.3,1.9c1,1.8,1.2,4.2,1.7,5.9c0.9,2.6,2.3,5,5.5,4.7c3-0.3,5.4-2.8,6.4-5.9
				C524.6,597.7,523.8,592.5,519.4,590z M519.8,600.4c-0.8,2.2-2.4,3.8-3.9,4.3c-1.7,0.4-2.8-0.6-3.5-2c-1-2-1.1-4.2-2.1-6
				c-0.6-0.9-1.4-1.7-2.9-2.1v-2.2c0-1.8-1.5-3.7-3.5-3.7h7c3.1,0,5.6,1.2,7.3,3.1C520.5,594.5,520.7,597.8,519.8,600.4z"/>
			<path class="st2" d="M546,616.5v-14.7c0-3.2-1.6-5.1-5.4-5.1h-1.3v0.4c1.8,0,2.9,1.4,2.9,3.4v11.6c0,3.7-2.5,6-5.1,6.1
				c-2.5,0-4.9-1.7-4.9-5.8v-10.7c0-3.2-1.6-5.1-5.4-5.1h-1.3v0.4c1.8,0,2.9,1.4,2.9,3.4v12.6c0,4.3,3.1,7.2,6.7,7.2
				c3.1,0,5.7-1.7,7.1-5.1c0,3.5,1.9,5.1,5.4,5.1h1.4V620C547.1,620,546,618.6,546,616.5z"/>
			<path class="st2" d="M563.2,596.7c-3.8,0-6.3,2.5-7.2,5.1v-8.6c0-3.2-1.6-5.1-5.3-5.1h-1.4v0.5c1.8,0,2.9,1.4,2.9,3.4v28.5
				l3.8-1.9c1.7,1.2,3.3,1.9,5.6,1.9c6.7,0,9.9-6.2,10.2-11.7C572.1,603.6,569.8,596.7,563.2,596.7z M561.6,619.7
				c-3.8,0-5.5-4.4-5.6-7.6V605c0-3.8,2.8-6,5.6-6c5.1,0.1,6.7,5.9,6.8,9.7C568.4,612.6,566.9,619.7,561.6,619.7z"/>
			<path class="st2" d="M579.6,616.5v-23.4c0-3.2-1.6-5.1-5.4-5.1h-1.3v0.5c1.8,0,2.9,1.3,2.9,3.4v23.4c0,3.2,1.6,5.1,5.4,5.1h1.3
				V620C580.7,620,579.6,618.6,579.6,616.5z"/>
			<path class="st2" d="M589.7,616.5v-14.7c0-3.2-1.6-5.1-5.4-5.1H583v0.4c1.8,0,2.9,1.4,2.9,3.4v14.8c0,3.2,1.6,5.1,5.4,5.1h1.4
				V620C590.8,620,589.7,618.6,589.7,616.5z M587.8,588.1c-1.3,0-2.4,1.1-2.4,2.4c0,1.3,1,2.4,2.4,2.4c1.3,0,2.4-1.1,2.4-2.4
				C590.2,589.1,589.1,588.1,587.8,588.1z"/>
			<path class="st2" d="M633.9,616.5v-12.6c0-4.7-3.5-7.2-7.1-7.2c-3.1,0-6.3,1.6-7.7,5.1v-8.6c0-5.5-4.2-9.1-8.3-9.1
				c-5.2,0-8,3.8-8,7.6c0,1.9,0.8,3.8,2.4,5.3c-0.9-0.2-1.9-0.2-2.9-0.2c-2.6,0-5.1,0.6-6.3,2.4c-1.3,1.8-1.1,4.8,2,6.9
				c2.1,1.5,5.7,2.7,7.9,4.1c2.1,1.4,3.1,3.4,3,5.1c-0.1,2.4-2.1,4.5-5.8,4.5c-2.4,0-3.9-0.9-4.7-2.1c-0.5-0.8-0.8-2-0.7-3.1
				c0.2-1.3,0.9-2.3,2.4-2.2l0.3-0.3c-2.1-2.8-5.9-0.8-6.2,2.2c-0.2,1.8,0.9,3.7,2.5,4.7c1.8,1.1,4.2,1.5,6.4,1.5
				c5.5,0,8.9-3.5,8.8-7.2c-0.1-2.1-1.3-4.3-3.8-6c-2.5-1.7-5.7-2.7-8.1-4.2c-2.2-1.3-3.1-3.5-2-4.7c0.7-0.7,2.3-0.9,4.2,0
				c0.8,0.3,1.6,0.8,2.5,1.5c1.5,1,3.3,1.4,4.6,0.9c1.3-0.5,2.2-1.9,2-4l-0.6-0.1c-0.6,1.3-1.1,1.3-2.8,0.9c-0.3-0.1-0.7-0.2-1-0.3
				c-2.2-1.2-3.2-3.4-3.3-5.5c-0.1-2.9,1.8-6,5.5-6.2c3-0.1,6.1,2,6.1,6.4v23.4c0,3.2,1.6,5.1,5.4,5.1h1.4V620
				c-1.8,0-2.9-1.4-2.9-3.4V605c0-4.1,2.9-6.2,5.7-6.3c2.7,0,5.3,1.9,5.3,6v10.7c0,3.2,1.6,5.1,5.4,5.1h1.4V620
				C635,620,633.9,618.6,633.9,616.5z"/>
			<path class="st2" d="M643,616.6v-14.8c0-3.2-1.6-5.1-5.4-5.1h-1.4v0.5c1.8,0,2.9,1.3,2.9,3.4v14.8c0,3.2,1.6,5.1,5.3,5.1h1.4V620
				C644.1,620,643,618.6,643,616.6z M667.6,616.6V604c0-4.7-3.5-7.2-7.1-7.2c-3.1,0-6.3,1.6-7.7,5.1c0-2.7-1.1-4.2-3.1-4.8
				c-1.7-0.6-3.4-0.6-5-1.1c-0.9-0.3-1.9-0.8-2.7-1.4c-0.8-0.5-1.5-1.2-1.9-2c0.4,0.1,0.7,0.3,1.1,0.3c1.3,0,2.4-1.1,2.4-2.4
				c0-1.3-1-2.4-2.4-2.4c-1.3,0-2.4,1.1-2.4,2.4c0,2,1.3,3.5,2.9,4.6c0.9,0.6,1.8,1.1,2.8,1.5c1.4,0.4,3.3,0.7,4.1,2
				c0.3,0.6,0.5,1.3,0.5,2.1v14.8c0,3.2,1.6,5.1,5.3,5.1h1.4V620c-1.8,0-2.9-1.4-2.9-3.4V605c0-4,2.9-6.2,5.7-6.2
				c2.7-0.1,5.3,1.9,5.3,6v10.6c0,3.2,1.6,5.1,5.3,5.1h1.4v-0.5C668.8,619.9,667.6,618.6,667.6,616.6z"/>
			<path class="st2" d="M686.8,616.6h-9.7c-2.7,0-2.5-1.8-1.6-2.7l1.2-1.2c1.6,0.9,3.4,1.6,5.4,1.6c5.3,0,9.6-4,9.6-8.8
				c0-2.9-1.5-5.4-3.8-7c0.5-0.6,1-0.6,1.5-0.2l0.9,0.9c0.9,0.8,1.8,0.8,2.6,0.4c1-0.5,1.4-1.7,0.5-2.8h-0.4c0,0.9-1,0.8-2,0.4
				c-1.2-0.4-2.6-0.7-3.6,1.1c-1.5-1-3.4-1.5-5.4-1.5c-5.3,0-9.5,3.9-9.5,8.8c0,2.7,1.3,5.2,3.5,6.8l-1.6,1.5
				c-2.9,2.7-1.3,6.6,3,6.6h10.5c3.2,0,4.9,2.3,4.7,4.2c-0.2,1.8-2.1,3.2-6.1,1.9l-8.6-2.9c-6.2-2.1-7,3.2-5.1,5.5l0.6-0.2
				c-0.4-1.4,0.8-2.4,3.4-1.7c2.2,0.6,6.5,1.9,9.9,1.9c4.1,0,6.3-2,7-4.3C694.8,621.2,692.2,616.6,686.8,616.6z M678.1,598.2
				c2.8-1.6,6.8,0.4,9.1,4.3c2.3,4,2,8.5-0.8,10.1c-2.7,1.6-6.8-0.4-9.1-4.3C675.1,604.3,675.4,599.8,678.1,598.2z"/>
		</g>
		<g>
			<g>
				<g>
					<path class="st2" d="M335.4,588.8c-11.1-0.2-21.6,4.4-32.4,8.6c-12.1,4.8-24.6,9.2-38,5.6c-9.2-2.3-16.4-8.3-22.3-17.9
						c-9.5-15.3-13.7-35.5-17.4-53.1c15.3-16.5,39.1-42.1,39.1-68.1h-16.5c3.2,19.2-0.5,41.2-23.2,64.6c-1.4-7-2.3-12.8-3.5-19.3
						c-1.2-5.3-2.8-11.3-5.1-14.9c-1.9-3.3-4.9-6-9.9-7.4v-8.3c0-6.3,5.1-12.8,12.1-12.8v-1.8h-38.9v1.8c7.2,0,12.3,6.5,12.3,12.8
						v84.1c0,6.3-5.1,12.8-12.3,12.8v1.8h38.9v-1.8c-7,0-12.1-6.5-12.1-12.8v-73.2c3.7,0.9,6.2,3.3,7.9,6.5
						c2.8,4.9,5.1,20.2,8.1,35.2c3.5,17.8,8.8,38.9,17.1,55.2c6.2,12.3,13.4,19.7,23,23c16,5.6,30.3,2.1,44.2-1.6
						c10-2.8,19.9-5.5,29.9-4.8c10,0.5,17.6,7.4,13.7,17.1h1.2C361.3,605.9,354.3,589,335.4,588.8z"/>
					<path class="st2" d="M327.2,563.5v-41.9c0-9-1.6-15.3-5.3-19.7c-4.6-5.6-12.5-7.7-24.3-7.7c-6.2,0-11.6,1.2-17.8,3
						c-6,1.6-9.2,0.7-11.1-3l-1.4,0.9c1.2,10,11.3,16,22.9,12.1c4.2-1.2,9.2-2.8,12.5-3.5c12.7-3,18.8,0.4,20.4,5.3
						c1.6,5.3-2.3,12.1-9.3,13.9c-11.4,3-27.8,6.9-32.5,8.4c-17.8,5.3-22.2,18.7-18.5,29.6c3.2,9,12.7,16.4,24.6,16.4
						c12.3,0,23.6-9.7,26.6-17.8c0,11.3,5.5,17.8,18.7,17.8h4.9v-1.8C331.3,575.5,327.2,570.7,327.2,563.5z M314,549.4
						c0,11.8-9.7,19.9-20.8,20.6c-9.5,0.5-16-6-17.8-13.7c-1.8-7.2,0.5-15.7,8.4-20.6c7.9-4.9,22.2-8.1,30.1-10.4V549.4z"/>
					<path class="st2" d="M417.8,563.5v-44.2c0-16.4-12.3-25.2-25-25.2c-10.7,0-22,5.6-26.9,17.8c0-12.5-6.7-17.8-18.8-17.8h-4.7
						v1.6c6.1,0,10.2,4.9,10.2,12v51.7c0,11.3,5.5,17.8,18.7,17.8h4.9v-1.8c-6.3,0-10.2-4.8-10.2-12h0V523
						c-0.2-14.3,10-21.8,19.9-22c9.3,0,18.5,6.7,18.7,20.9v37.5c0,11.3,5.4,17.8,18.6,17.8h4.9v-1.8
						C421.7,575.5,417.8,570.7,417.8,563.5z"/>
					<path class="st2" d="M502.3,563.5v-81.8c0-11.3-5.4-17.8-18.6-17.8h-4.8v1.8c6.2,0,10.2,4.8,10.2,11.8v23
						c-5.8-4-11.4-6.3-19.5-6.3c-23.6,0-34.7,21.5-35.9,40.8c-0.9,18.1,7,42.2,30.3,42.2c13.2,0,22-8.8,25.2-17.8
						c0,11.3,5.5,17.8,18.6,17.8h4.8v-1.8C506.4,575.5,502.3,570.7,502.3,563.5z M489.1,548.2c0,13.6-9.8,21.1-19.5,20.9
						c-17.8-0.2-23.4-20.8-23.7-34.1c-0.2-13.2,5.1-38.3,23.6-38.3c13.4,0,19.5,15.3,19.7,26.7V548.2z"/>
					<path class="st2" d="M535.1,563.5v-81.8c0-11.3-5.5-17.8-18.8-17.8h-4.8v1.8c6.3,0,10.2,4.7,10.2,11.8v82
						c0,11.3,5.5,17.8,18.8,17.8h4.8v-1.8C539,575.5,535.1,570.7,535.1,563.5z"/>
					<path class="st2" d="M620.2,563.5c0,0-0.1,0.1-0.1,0.1C620.1,563.6,620.1,563.5,620.2,563.5L620.2,563.5z"/>
					<path class="st2" d="M680.5,577c-4.3-0.3-8.6-0.7-12.9-1.6c-1.4-0.3-2.9-0.7-3.6-1.9c-0.4-0.8-0.5-1.7-0.8-2.5
						c-0.9-2.5-4-3.3-6.7-3.4c-6.1-0.2-12.1,1.4-18.3,1.7c0.9-2,2.5-4.1,1.9-6.2c-0.4-1.3-1.5-2.2-2.8-2.6s-2.6-0.4-3.9-0.3
						c-8.4,0.7-15.9,4.9-23.7,7.7c-8.1,3-16,3.8-23.9-0.3c-4.9-2.5-9.2-6.3-12.8-10.5c-0.5-0.6-1-1.2-1.5-1.9
						c-4.9-7-4.7-14.8-0.7-19.7c2.6-3.2,7-5.1,12.7-5.1c6.5-0.2,13.7,2.3,19.5,2.8c9,0.9,14.9-2.6,17.9-7.7c4.2-7,2.5-17.6-6-24.4
						c-5.1-4.2-12.7-7-22.9-7c-22.9,0-41.5,18.5-41.5,41.5c0,16.6,10.6,32.4,26.1,38.5c10.9,4.3,23,3.2,33.5-1.6
						c6-2.7,11.8-6.1,18.3-7.6c1.7-0.4,3.5-0.7,5.2-0.8c0.8,0,1.6,0,2.4,0.2c-0.5,1.3-1.3,2.5-1.8,3.8c-0.5,1.3-0.5,2.9,0.4,4
						c0.9,1,2.5,1.1,3.9,1.1c6.4-0.3,12.7-2.5,19.1-2.3c0.8,0,1.7,0.1,2.3,0.7c0.8,0.7,0.9,1.9,1.3,2.8c1,2.1,3.6,2.9,5.9,3.2
						c6.1,0.9,12.3,0.3,18.5-0.3C684,577.2,682.3,577.1,680.5,577z M562.1,535.7c-3.4-14.4,0.5-28,10.7-33.8
						c10.9-6.3,22.9-2.1,30.6,4.9c5.3,4.9,8.3,10.7,7.6,15.3c-0.7,3.9-3.9,6.7-10.2,7c-5.5,0.4-11.6-1.1-17.2-1.1
						c-6,0-11.3,1.9-14.4,5.8c-2.5,2.6-3.9,6.3-3.9,10.9C563.9,541.9,563,538.7,562.1,535.7z"/>
				</g>
			</g>
		</g>
		<g>
			<g>
				<path class="st0" d="M531.7,435.3c-0.1,4-1.4,7.9-3.5,11.2c-2.1,3.4-5,6.2-8.2,8.6c5.1-3.7,8.4-9.1,9.9-15.1
					c0.9-3.8,0.1-7.6-0.9-11.2c-1.1-3.8-2.7-7.3-4.2-10.9c-0.8-1.9-1.4-3.7-1.9-5.7c-0.8-3.3-1-7-0.9-10.7c0-1.2,0.1-3.9,0.2-8
					c0,0,0,0,0,0c0,0,0,0,0,0c-0.6,1.6-1.2,3.2-1.8,4.9c-3,8.5-5.4,17.9-4.3,27c0,0.2,0,0.4,0.1,0.6c0.4,2.9,1.2,5.8,2.2,8.6
					c1,2.8,2.3,5.5,3,8.5c0.4,2,0.6,4,0.3,6c-0.2,1.1-0.3,2.1-0.5,3.1c-0.2,0.8-0.5,1.6-0.9,2.4c0,0,0,0,0,0c0,0,0,0,0,0
					c0.3-0.7,0.6-1.4,0.7-2.2c0-0.1,0-0.2,0-0.3c0.4-2.1,0-7.1-0.1-7.3c0,0,0,0,0,0c0,0,0,0,0,0c0,0-0.6,3.9-0.6,3.9c0,0,0,0,0,0
					c0,0-0.2-1.8-0.2-2.2c0-0.2,0-0.4,0-0.5c-0.1-1.4-0.5-2.7-1.1-4c-0.6-1.5-1.3-2.9-1.9-4.3c-0.5-1.2-1-2.4-1.4-3.6
					c-0.1-0.2-0.2-0.4-0.2-0.6c-2.8-8.5-2.2-17.8,0.1-26.3c1.1-4.4,2.6-8.6,4.1-12.9c1.5-3.9,3.6-9.5,6.4-16.6c0,0,0,0,0,0
					c0,0,0,0,0,0c0,2.1-0.5,4.2-0.7,6.3c-0.2,2-0.4,4-0.6,6c-0.3,4.2-0.4,8.3-0.6,12.5c-0.1,3.8,0.1,7.7,1.2,11.4
					C527.3,420.9,531.9,427.5,531.7,435.3z"/>
			</g>
		</g>
		<g>
			<g>
				<g>
					<g>
						<path class="st0" d="M515.6,390.8c-0.1,4.1-1,8.4-2.7,12.7c-1.6,4-2.5,8.1-2.6,12.1c0,1.8,0.2,3.6,0.5,5.3
							c-0.7-1.6-1.2-3.4-1.5-5.2c-0.6-4.1,0.1-8.6,1.8-12.9c1.6-4,2.8-8,3.6-12c0.3-1.9,0.5-3.6,0.6-5.3
							C515.5,387.1,515.6,388.9,515.6,390.8z"/>
					</g>
				</g>
				<g>
					<path class="st0" d="M531.7,398.2c-0.7-1-1.4-2.1-1.9-3.4c-1.2-3.1-1.5-6.6-1-10.2c0.5-3.3,0.7-6.6,0.5-9.9
						c-0.1-1.4-0.2-2.6-0.4-3.8c0.5,1.1,0.8,2.3,1.1,3.7c0.7,3.2,0.8,6.6,0.2,10.2c-0.5,3.4-0.5,6.7,0.2,9.8
						C530.9,395.8,531.3,397,531.7,398.2z"/>
				</g>
				<g>
					<g>
						<path class="st0" d="M536.8,433.8c-0.6,1-1.3,1.9-2.2,2.7c0.6-1.2,1-2.2,1.3-3.2c0.7-2.5,0.3-4.7-1.2-6.8
							c-0.2-0.3-0.4-0.6-0.7-1c-0.1-0.1-0.2-0.3-0.3-0.4c-0.1-0.1-0.2-0.3-0.3-0.4c-0.4-0.5-0.6-1.1-0.9-1.7l-0.1-0.2
							c-0.5-1.4-0.8-2.9-0.6-4.3c0.1-1.2,0.5-2.3,1.1-3.4c-0.2,1.2-0.2,2.4,0,3.4c0.2,1.2,0.6,2.4,1.2,3.5l0,0.1
							c0.1,0.1,0.1,0.2,0.2,0.3l0.1,0.1c0.2,0.4,0.4,0.7,0.7,1c0.4,0.4,0.6,0.8,1.2,1.6c0.9,1,1.4,2.6,1.6,4.2
							C537.9,431.3,537.3,432.8,536.8,433.8z"/>
					</g>
				</g>
			</g>
		</g>
	</g>
	<g id="XMLID_00000023959697539992059320000012292265557565702587_">
		<path class="st3" d="M707.6,524.2c0.3-0.5,0.6-1,1-1.6C708.2,523.2,707.9,523.7,707.6,524.2z"/>
		<path class="st3" d="M711,518.8c0.5-0.8,1-1.5,1.5-2.3C712,517.3,711.5,518,711,518.8z"/>
		<path class="st3" d="M719.5,506.5c0.9-1.3,1.9-2.6,2.9-3.9C721.4,503.9,720.5,505.2,719.5,506.5z"/>
		<path class="st3" d="M710.1,528.6c0.1-0.1,0.2-0.3,0.3-0.4C710.3,528.4,710.2,528.5,710.1,528.6c-0.2,0.3-0.3,0.5-0.5,0.7
			C709.7,529.1,709.9,528.9,710.1,528.6z"/>
		<path class="st3" d="M720.7,512.1c0.2-0.3,0.5-0.7,0.8-1C721.2,511.4,721,511.7,720.7,512.1c-2.3,3.2-4.4,6.2-6.2,9
			c-1.5,2.3-2.9,4.3-4,6.1c1.2-1.8,2.5-3.9,4-6.1C716.4,518.3,718.4,515.2,720.7,512.1z"/>
		<path class="st3" d="M736.2,485.7c0.4-0.4,0.7-0.8,1.1-1.2C736.9,484.9,736.6,485.3,736.2,485.7c-0.4,0.4-0.7,0.8-1.1,1.3
			C735.4,486.5,735.8,486.1,736.2,485.7z"/>
		<path class="st3" d="M736,492.2c2.7-3.2,5.4-6.4,8.2-9.5C741.4,485.8,738.7,489,736,492.2c-1,1.3-2.1,2.5-3.1,3.8
			C734,494.7,735,493.4,736,492.2z"/>
		<path class="st3" d="M758,464.6c-1.9,1.6-3.9,3.2-5.8,4.9C754.2,467.8,756.1,466.2,758,464.6z"/>
		<path class="st3" d="M750.1,474.1c0.4-0.4,0.8-0.7,1.2-1.1c0.8-0.7,1.5-1.4,2.3-2.1c-0.8,0.7-1.5,1.4-2.3,2.1
			C750.9,473.4,750.5,473.8,750.1,474.1z"/>
		<path class="st3" d="M753.2,473.4c-2.1,2.1-4.2,4.3-6.3,6.5C749,477.6,751.1,475.5,753.2,473.4c1.1-1.1,2.1-2.1,3.2-3.1
			C755.3,471.3,754.2,472.3,753.2,473.4z"/>
		<path class="st3" d="M768.2,457.2c-0.7,0.5-1.5,1-2.2,1.5C766.7,458.2,767.4,457.7,768.2,457.2c0.7-0.5,1.4-1,2.2-1.4
			C769.6,456.3,768.9,456.7,768.2,457.2z"/>
		<path class="st3" d="M770.1,458.6c-0.7,0.5-1.4,1-2.1,1.6C768.8,459.7,769.4,459.1,770.1,458.6c0.3-0.3,0.7-0.5,1-0.7
			C770.8,458.1,770.5,458.4,770.1,458.6z"/>
		<path class="st3" d="M769.1,461.5c0.2-0.1,0.3-0.3,0.5-0.4C769.4,461.2,769.3,461.4,769.1,461.5c-0.3,0.3-0.7,0.5-1,0.8
			C768.4,462,768.8,461.8,769.1,461.5z"/>
		<path class="st3" d="M773.2,455.7c0.7-0.4,1.4-0.9,2-1.3C774.6,454.9,773.9,455.3,773.2,455.7z"/>
		<path class="st3" d="M786.8,447.5c0.8-0.3,1.6-0.6,2.4-0.9C788.4,446.9,787.6,447.1,786.8,447.5z"/>
		<path class="st3" d="M795.4,445.3c-0.3,0.1-0.7,0.3-1,0.4C794.7,445.6,795.1,445.5,795.4,445.3z"/>
		
			<linearGradient id="XMLID_00000059300453154257490420000014522829300556185496_" gradientUnits="userSpaceOnUse" x1="1055.7552" y1="867.7347" x2="956.2956" y2="979.1087" gradientTransform="matrix(0.8763 0.4817 -0.4817 0.8763 320.2552 -809.9578)">
			<stop  offset="0" style="stop-color:#FF6200"/>
			<stop  offset="0.8523" style="stop-color:#A62221"/>
			<stop  offset="0.9944" style="stop-color:#662221"/>
		</linearGradient>
		
			<path id="XMLID_00000022548499984722300460000007825058228023662212_" style="fill:url(#XMLID_00000059300453154257490420000014522829300556185496_);" d="
			M792.1,457.7c5,0.2,16.3-4.1,21.8-10c5.2-5.6,9.5-8.4,4.5-9.2c-5.1-0.9-12.8-4.3-19.5-2c-7,2.3-8.5,3.5-9.6,4.2
			c-1.1,0.7-0.8-0.1,0.4-1.3c1.2-1.2,1.8-4.3-1.2-2.5c-3,1.8-6,2.8-9.5,3.7c-3.5,0.9-7.7,4.8-9.8,7.4c-2.1,2.6-3.3,3.4-2.3,0.1
			c0.9-3.3,0.1-8.6-1.5-4.2c-1.7,4.5-10,11-12.3,12.9c-2.4,2-4.4,3-4.3,2c0-1-2.4,0.7-4.7,2.9c-2.3,2.2-13.2,9.8-17.5,12.8
			c-4.5,3.1-8.3,14.2-9.4,18c-1.1,3.9-2.9,5-2.5,2.1c0.4-2.9-1.6-3.9-3.4,1.1c-1.9,5.1-5.8,8.7-6.6,13.4c-0.8,4.8-2.2,9.8-2.8,6.9
			c-0.6-2.9-1.8-4-2.6,0.8c-0.9,4.8-1.1,6.7-1.1,8.7c0,2-1,1.4-1.4,0.3c-0.4-1-2.6-2.1-1.8,1.7c0.8,3.9-0.2,6,1.1,7.9
			c1,1.3,2.2,2,2.7,2.5c0,0.1,0.1,0.1,0.1,0.2c1.4,1.6,4.2,1.7,5.3,1.8c0,0,0,0,0,0c0.1,0,0.1,0,0.2,0c0.1,0,0.2,0,0.2,0
			c2.2-0.1,6.6-0.7,12.3-4.3c7.5-4.7,10.4-7.5,7.2-6.3c-3.2,1.2-5.7,0.6,0.4-2.4c5.9-3,12.9-6.6,14.6-8.5c1.7-1.9,1-3.3-2.6-1
			c-3.6,2.4-8.3,3.6-3.4,0.5c4.8-3,10.2-5,12.9-6c2.6-1,0.9-2-3.7-0.7c-4.6,1.4-5.6-0.6,0-2.2c5.4-1.6,14.3-5,10.8-4.8
			c-3.5,0.2-3.2,0,0.8-1c3.9-0.9,8.6-3.9,1.6-2.5c-7.2,1.5-10.9,2.1-13,3.1c-2.2,1-1.5-2.1,1.2-3.5c2.6-1.3,17.8-2.7,25.1-7
			c7-4.1,11.7-8.1,15.6-13.2c3.9-4.9,9.9-11,3.8-7.1c-6.4,4-14.5,7-19.9,6c-5.4-1-3.5-2.3-1-2.2c2.5,0.1,12.9,0.2,22.2-7.3
			c8.8-7.1,16.8-12.5,10.4-9.7c-6.6,2.8-10.9,0.5-12.4-0.3C785.8,458.5,787,457.5,792.1,457.7z M792.6,446.5
			c-0.4,0.2-0.8,0.4-1.3,0.6c-1.2,0.5-2.5,1.2-3.8,1.9c-0.4,0.2-0.8,0.4-1.2,0.7c-0.3,0.1-0.5,0.3-0.8,0.4c-0.5,0.3-1.1,0.6-1.6,0.9
			c-0.2,0.1-0.4,0.2-0.6,0.4c-0.4,0.3-0.8,0.5-1.3,0.8c-0.2,0.1-0.4,0.3-0.6,0.4c-0.9,0.5-1.8,1.1-2.7,1.7c-2.4,1.6-5,3.5-7.6,5.5
			c-0.3,0.3-0.7,0.5-1,0.8c-0.2,0.1-0.3,0.3-0.5,0.4c-0.2,0.1-0.3,0.3-0.5,0.4c-0.3,0.3-0.7,0.5-1,0.8c-0.3,0.3-0.7,0.6-1,0.8
			c-0.7,0.6-1.4,1.2-2,1.8c-0.7,0.6-1.4,1.2-2.1,1.8c-0.8,0.7-1.7,1.5-2.5,2.3c-0.8,0.8-1.7,1.6-2.5,2.4c-1.1,1.1-2.3,2.2-3.4,3.3
			c-0.4,0.4-0.7,0.7-1.1,1.1c-0.7,0.7-1.4,1.5-2.2,2.2l0,0c-0.7,0.7-1.4,1.5-2.1,2.2c-0.4,0.4-0.7,0.8-1.1,1.1
			c-0.4,0.5-0.9,0.9-1.3,1.4c-0.3,0.3-0.5,0.6-0.8,0.9c-0.6,0.7-1.3,1.4-1.9,2.1c-0.2,0.2-0.3,0.4-0.5,0.6c-0.5,0.6-1.1,1.2-1.6,1.8
			c-0.1,0.2-0.3,0.3-0.4,0.5c-0.6,0.7-1.3,1.5-1.9,2.2c-0.7,0.8-1.4,1.6-2.1,2.4c-2.8,3.3-5.6,6.6-8.2,9.9c-0.7,0.8-1.3,1.6-2,2.5
			c-1,1.2-1.9,2.4-2.8,3.6c-0.6,0.8-1.2,1.6-1.8,2.4c-0.3,0.4-0.6,0.8-0.9,1.2c-0.6,0.8-1.2,1.5-1.7,2.3c-0.4,0.6-0.8,1.1-1.3,1.7
			c-1,1.4-2,2.7-3,4c-0.2,0.3-0.4,0.5-0.6,0.8c-1.9,2.5-3.5,4.8-4.9,6.7c0,0.1-0.1,0.1-0.1,0.2c0,0.1-0.1,0.1-0.1,0.2
			c-0.2,0.3-0.4,0.5-0.5,0.7c-0.1,0.1-0.2,0.2-0.3,0.4c-0.2,0.2-0.3,0.5-0.5,0.7c-0.9,1.2-1.6,2.2-2.1,3c-0.1,0.2-0.2,0.4-0.4,0.5
			c-0.1,0.1-0.1,0.2-0.2,0.3c0,0-0.1,0.1-0.1,0.1c-0.1,0.1-0.1,0.2-0.2,0.2c-0.2,0.3-0.3,0.5-0.4,0.5c0,0,0.1-0.1,0.2-0.3
			c0.1-0.2,0.3-0.5,0.5-0.8c0.1-0.2,0.3-0.4,0.4-0.7c0.7-1.2,1.7-2.8,3.1-4.9c0.1-0.1,0.2-0.3,0.3-0.4c0.2-0.3,0.3-0.5,0.5-0.8l0,0
			c0.3-0.5,0.6-0.9,0.9-1.4c0.9-1.5,2-3,3.1-4.7c1.8-2.7,3.9-5.8,6.2-9c0.2-0.3,0.5-0.7,0.7-1c0.3-0.4,0.6-0.9,1-1.3
			c0.5-0.8,1.1-1.5,1.7-2.3c0.1-0.1,0.2-0.2,0.2-0.3c0.5-0.7,1.1-1.4,1.6-2.1c0.7-0.9,1.4-1.8,2.1-2.7c0.4-0.5,0.7-0.9,1.1-1.4
			c0.6-0.8,1.2-1.6,1.8-2.3c0.7-0.8,1.3-1.7,2-2.5c0.7-0.8,1.3-1.7,2-2.5c0.4-0.4,0.7-0.9,1.1-1.3c0.7-0.8,1.3-1.6,2-2.4
			c1.4-1.6,2.7-3.2,4.1-4.7c0.7-0.8,1.4-1.6,2.1-2.3c0.1-0.1,0.2-0.2,0.3-0.3c0.8-0.9,1.6-1.7,2.4-2.6c2.1-2.2,4.2-4.4,6.3-6.5
			c0.5-0.5,1.1-1.1,1.6-1.6c0.5-0.5,1.1-1,1.6-1.5c1.2-1.1,2.3-2.2,3.5-3.2c0.3-0.3,0.6-0.6,0.9-0.8c0.3-0.3,0.6-0.5,0.9-0.8
			c0.3-0.3,0.7-0.6,1-0.9c0.3-0.3,0.7-0.6,1.1-0.9c0.7-0.6,1.4-1.2,2.1-1.7c0,0,0,0,0,0c0.7-0.6,1.4-1.1,2.1-1.6c0,0,0,0,0,0
			c0.7-0.5,1.4-1.1,2.1-1.6c0.3-0.3,0.7-0.5,1-0.7c0.7-0.5,1.3-1,2-1.4c0.7-0.5,1.3-0.9,2-1.3c1-0.7,1.9-1.3,2.9-1.9
			c1.2-0.8,2.5-1.5,3.6-2.2c0.3-0.2,0.6-0.3,0.9-0.5c0.9-0.5,1.7-0.9,2.6-1.4c0.1,0,0.2-0.1,0.3-0.1c0,0,0.1,0,0.1-0.1
			c0.3-0.2,0.6-0.3,0.9-0.5c0,0,0.1,0,0.1-0.1c-0.6,0.3-1.2,0.6-1.8,0.8c-2.3,1.1-4.8,2.4-7.4,3.9c-0.7,0.4-1.3,0.8-2,1.2
			c-0.7,0.4-1.4,0.8-2,1.3c-1.4,0.9-2.8,1.8-4.2,2.8c-0.4,0.3-0.7,0.5-1.1,0.7c-0.4,0.3-0.7,0.5-1.1,0.8c-0.7,0.5-1.4,1.1-2.2,1.6
			l0,0c-0.4,0.3-0.7,0.6-1.1,0.8c-0.2,0.1-0.4,0.3-0.6,0.4c-0.2,0.1-0.4,0.3-0.6,0.4c-0.2,0.1-0.4,0.3-0.6,0.4
			c-0.6,0.4-1.1,0.9-1.7,1.3c-1.5,1.2-3,2.5-4.5,3.8c-0.8,0.7-1.5,1.3-2.3,2c-0.4,0.3-0.8,0.7-1.1,1c-0.4,0.3-0.8,0.7-1.1,1
			c-0.4,0.4-0.8,0.7-1.2,1.1c-1.2,1.1-2.3,2.2-3.5,3.3c-1.1,1.1-2.3,2.3-3.4,3.5c-0.4,0.4-0.8,0.8-1.1,1.2c-0.4,0.4-0.8,0.8-1.1,1.2
			c-2.7,2.8-5.3,5.7-7.8,8.6c-2.9,3.4-5.8,6.9-8.5,10.2c-1.5,1.9-2.9,3.7-4.3,5.5c-0.8,1.1-1.6,2.1-2.4,3.2c-0.3,0.5-0.7,0.9-1,1.4
			c-0.6,0.8-1.2,1.6-1.8,2.4c-0.6,0.8-1.2,1.6-1.7,2.4c-0.3,0.4-0.6,0.8-0.8,1.1c0,0,0,0,0,0c-0.3,0.4-0.5,0.7-0.8,1.1
			c-0.5,0.7-1,1.5-1.5,2.2c-0.1,0.2-0.2,0.4-0.4,0.5c-1.8,2.7-3.5,5-4.8,7c-1.4,2.2-2.6,3.9-3.3,5.1c-0.1,0.1-0.1,0.2-0.2,0.3
			c-0.1,0.2-0.2,0.4-0.4,0.6c-0.3,0.4-0.4,0.7-0.5,0.9c0.1-0.2,0.5-0.9,1-1.8c0.3-0.6,0.8-1.4,1.3-2.3c0.1-0.2,0.3-0.4,0.4-0.7
			c0.4-0.7,0.9-1.5,1.4-2.3c0.3-0.6,0.7-1.1,1-1.7c0.2-0.3,0.4-0.6,0.6-0.9c0.3-0.5,0.6-1,0.9-1.5c0.1-0.2,0.2-0.3,0.3-0.5
			c0.3-0.5,0.6-1,1-1.6c0.3-0.5,0.7-1.1,1-1.6c0.5-0.7,0.9-1.5,1.4-2.2c0.5-0.8,1-1.5,1.5-2.3c1.1-1.6,2.2-3.2,3.3-4.9
			c1.2-1.7,2.4-3.3,3.6-5.1c0.5-0.6,0.9-1.3,1.4-2c0.5-0.7,1-1.3,1.5-2c0.3-0.4,0.7-0.9,1-1.3c2.6-3.5,5.4-7,8.4-10.5
			c1.1-1.3,2.2-2.6,3.3-3.8c0.4-0.4,0.7-0.8,1.1-1.3c0.4-0.4,0.7-0.8,1.1-1.3c0.7-0.7,1.4-1.5,2-2.2c0.5-0.5,0.9-1,1.4-1.5
			c3-3.2,6.1-6.2,9.2-9.1c0.8-0.7,1.5-1.4,2.3-2.1c1.9-1.7,3.8-3.3,5.8-4.9c0.4-0.3,0.8-0.6,1.2-0.9c1.5-1.2,3-2.3,4.5-3.4
			c0.8-0.5,1.5-1.1,2.2-1.6c0.7-0.5,1.5-1,2.2-1.5c0.7-0.5,1.4-0.9,2.2-1.4c0.7-0.5,1.4-0.9,2.1-1.3c0.8-0.5,1.7-1,2.5-1.4
			c0.6-0.3,1.1-0.6,1.7-0.9c0,0,0,0,0,0c1.1-0.6,2.3-1.2,3.3-1.7c0.5-0.3,1-0.5,1.5-0.7c0.9-0.4,1.8-0.8,2.7-1.2
			c0.9-0.4,1.7-0.7,2.6-1c0.4-0.2,0.8-0.3,1.2-0.5c0.4-0.1,0.8-0.3,1.2-0.4c0.5-0.2,1-0.3,1.5-0.5c0.1,0,0.2-0.1,0.4-0.1
			c0.2-0.1,0.5-0.2,0.7-0.2c0.1,0,0.2-0.1,0.3-0.1c0.2-0.1,0.4-0.1,0.7-0.2c0.2-0.1,0.4-0.1,0.6-0.2c0.1,0,0.2-0.1,0.3-0.1
			c0.1,0,0.2-0.1,0.3-0.1c0.6-0.2,1.1-0.3,1.7-0.4c0.3-0.1,0.7-0.2,1-0.2c0.3-0.1,0.6-0.1,0.9-0.2c0.2,0,0.4-0.1,0.6-0.1
			c0.2,0,0.3-0.1,0.5-0.1c0.1,0,0.2,0,0.3-0.1c0.3-0.1,0.6-0.1,0.8-0.2c0.1,0,0.1,0,0.1,0c0,0,0,0,0,0c0,0,0.1,0,0.1,0
			c-0.1,0-0.5,0.2-1,0.3c-0.7,0.2-1.7,0.6-2.9,1.1c-0.2,0.1-0.3,0.1-0.5,0.2c-0.3,0.1-0.7,0.3-1,0.4c-0.2,0.1-0.4,0.2-0.6,0.2
			C793.4,446.2,793,446.3,792.6,446.5z"/>
		<path id="XMLID_00000169520924372805408590000013297422747967371654_" class="st0" d="M698.5,559.9c-0.3-3.4,2.8-12.4,4.1-14.7
			c1.3-2.3,1.5-3.6,0.6-3.7c-0.8,0-0.6-1.7,0.1-1.7c0.1,0,0.5,0,1,0c-1.1,0-3.9-0.2-5.3-1.8c0.1,0.2,0.2,0.4,0.1,0.6
			c-0.3,0.9-0.9,1.1-1.5,1c-0.6-0.2-1.8,0.5-2.6,2.6c-0.8,2.2-6.2,10.1-9.1,12.1c-3,2-3.1,4-2.7,5.5c0.3,1.5-0.2,9.5-1.1,13.1
			c-1,3.6,0.3,2.1,1.2-0.1c0.9-2.2,3.4-7.4,3.9-8.9c0.5-1.5-0.9-3.6,2.2-6.5c3.1-2.9,5.7-0.1,4.8,2.3c-0.9,2.4-1.9,3-2.8,3.3
			c-0.9,0.3-1.4,1.2-2.2,3c-0.9,1.8-3.6,6.8-4.3,8.1c-0.7,1.4-1.8,3.5,0.5,1.6c0,0,4.8-6.2,8.5-8.9
			C697.4,564.1,698.8,563.4,698.5,559.9z M700.3,545.6c-1.6-0.4-4.1-0.9-4.6-1.4c-0.5-0.6-0.3-2.5,0.7-2.1c0,0,2.5,1.1,3.8,1.3
			c1.3,0.2,2.2,0.5,1.9,1C702,544.8,701.9,546,700.3,545.6z"/>
	</g>
</g>
</svg>
