<?xml version="1.0" encoding="utf-8"?>
<!-- Generator: Adobe Illustrator 26.0.1, SVG Export Plug-In . SVG Version: 6.00 Build 0)  -->
<svg version="1.1" id="Layer_1" xmlns="http://www.w3.org/2000/svg" xmlns:xlink="http://www.w3.org/1999/xlink" x="0px" y="0px"
	 viewBox="0 0 1000 1000" style="enable-background:new 0 0 1000 1000;" xml:space="preserve">
<style type="text/css">
	.st0{fill:#FF6200;}
	.st1{fill:#131921;}
	.st2{fill:#F7EEEB;}
	.st3{fill:none;}
	.st4{fill:url(#XMLID_00000008867400808637688870000010733511260286647685_);}
	.st5{fill:url(#XMLID_00000055706656363278121900000012911510402858050748_);}
</style>
<g>
	<g>
		<g>
			<g>
				<path class="st2" d="M388.2,607.1c-0.1-1.9-0.5-3.8-1.2-5.6c-2-5.2-6.6-9.1-14.4-9.1h-13.9v0.5c2.2,0,3.7,2,3.7,3.8v25.2
					c0,1.9-1.5,3.9-3.7,3.9v0.5H372C382.6,626.5,388.6,616.4,388.2,607.1z M370.6,625.7h-3.9v-28.6c0-1.9-1.6-3.9-3.7-3.9h8.1
					c6.1,0,9.7,3.5,11.3,8.3c0.6,1.8,0.9,3.9,1,5.9C383.6,616.2,378.8,625.7,370.6,625.7z"/>
				<path class="st2" d="M397.4,622.4v-15.5c0-3.4-1.6-5.3-5.6-5.3h-1.4v0.5c1.9,0,3.1,1.4,3.1,3.5v15.5c0,3.4,1.6,5.3,5.6,5.3h1.4
					V626C398.6,626,397.4,624.5,397.4,622.4z M420.4,601.6c-0.6,1.3-1.5,1.4-3.3,0.9l-1.5-0.5c-0.9-0.3-1.8-0.4-2.6-0.4
					c-3.3,0-5.2,3.3-5.3,5.3c0-2.4-0.9-4.3-3.2-5c-1.7-0.6-3.6-0.6-5.3-1.2c-1-0.3-2-0.8-2.8-1.4c-0.9-0.6-1.6-1.3-2-2.1
					c0.3,0.2,0.7,0.3,1.1,0.3c1.4,0,2.5-1.1,2.5-2.5c0-1.4-1.1-2.5-2.5-2.5c-1.4,0-2.5,1.1-2.5,2.5c0,2.1,1.3,3.7,3,4.9
					c1,0.7,1.9,1.2,3,1.5c1.4,0.5,3.4,0.7,4.2,2.1c0.4,0.6,0.5,1.3,0.5,2.2v15.5c0,3.4,1.6,5.3,5.7,5.3h1.4V626
					c-1.8,0-3.1-1.4-3.1-3.5v-12.2c0-1.3,0.4-3.1,1.3-4.3c0.7-0.9,1.5-1.3,2.4-1.3c0.8-0.1,1.6,0.2,2.5,0.5c3.5,1.1,6.1-0.8,6.9-3.3
					L420.4,601.6z"/>
				<path class="st2" d="M426.6,620c-1.5-2.1-1.4-4.4-0.2-5.9c0.8-0.9,2.1-1.5,3.8-1.5c2-0.1,4.1,0.7,5.9,0.8
					c2.7,0.3,4.5-0.8,5.4-2.3c1.3-2.1,0.7-5.3-1.8-7.3c-1.5-1.3-3.8-2.1-6.9-2.1c-6.9,0-12.4,5.5-12.4,12.5
					c0,6.9,5.6,12.5,12.5,12.5c3.5,0,6.6-1.4,8.8-3.6l-0.4-0.5C436.5,626.4,430.4,624.9,426.6,620z M423.7,614
					c-1-4.3,0.2-8.4,3.2-10.1c3.3-1.9,6.9-0.6,9.2,1.5c1.6,1.5,2.5,3.2,2.3,4.6c-0.2,1.2-1.2,2-3.1,2.1c-1.6,0.1-3.5-0.3-5.2-0.3
					c-1.8,0-3.4,0.6-4.3,1.7c-0.7,0.8-1.2,1.9-1.2,3.3C424.3,615.9,424,614.9,423.7,614z"/>
				<path class="st2" d="M477.5,623c-0.6,0.3-1.1,0.5-1.8,0.7c-2.4,0.7-3.9-1.1-3.9-2.9c0.1-1.4,1-2.7,3.2-2.7v-15.8h6.2v-0.7h-9.9
					c2.1,0,3.7-2,3.7-3.9c0-6.5-5.1-9.4-9-9.4c-4.5,0-8.1,3.3-8.1,8c0,2.2,1,4.3,2.4,5.6c-0.9-0.2-1.8-0.3-2.9-0.3
					c-6.9,0-12.5,5.5-12.5,12.5c0,6.9,5.6,12.5,12.5,12.5c3.4,0,6.5-1.4,8.8-3.6l-0.4-0.5c-5.2,4.4-12.1,2.1-15.7-4.1
					c-3.2-5.6-2.6-12,1.5-14.4c3.8-1.9,6.2,0.6,7.9,1.5c3.7,2,7,0,6.8-3.7l-0.5-0.2c-0.5,1-1.1,1.3-2.2,1.1
					c-1.4-0.2-2.7-1.2-3.5-2.3c-0.8-1.2-1.3-2.6-1.3-4.2c-0.1-4.2,3.4-6.8,6.9-6.8c4.5,0,7.4,4.1,7.2,7.9c-0.1,3.3-1.8,4.2-4.9,4.2
					v0.7h3.1v18.6c0,3.2,1.8,5.6,5.1,5.6c2.2,0,4.6-2.1,5.6,0l0.5-0.3C482,623.9,481,621.5,477.5,623z"/>
				<path class="st2" d="M520.4,594.5c-2.1-1.3-5.1-2-9-2h-11.6v0.5c2.1,0,3.6,2,3.6,3.8v25.2c0,1.9-1.5,3.9-3.6,3.9v0.5h11.7V626
					c-2.1,0-3.7-2-3.7-3.9v-22c1.1,0.3,1.9,1,2.4,2c1.1,1.8,1.3,4.4,1.8,6.2c0.9,2.7,2.4,5.2,5.8,4.9c3.2-0.3,5.6-2.9,6.8-6.2
					C525.9,602.6,525,597.2,520.4,594.5z M520.8,605.4c-0.8,2.3-2.5,4-4.1,4.5c-1.8,0.5-2.9-0.6-3.7-2.1c-1-2.1-1.2-4.4-2.2-6.3
					c-0.6-1-1.5-1.8-3-2.2v-2.3c0-1.9-1.5-3.9-3.6-3.9h7.4c3.2,0,5.9,1.3,7.6,3.3C521.5,599.3,521.8,602.7,520.8,605.4z"/>
				<path class="st2" d="M548.3,622.4v-15.5c0-3.4-1.6-5.3-5.7-5.3h-1.4v0.5c1.9,0,3.1,1.5,3.1,3.6v12.1c0,3.9-2.6,6.3-5.3,6.4
					c-2.6,0.1-5.1-1.8-5.1-6.1v-11.2c0-3.4-1.7-5.3-5.7-5.3h-1.4v0.5c1.9,0,3.1,1.5,3.1,3.6v13.2c0,4.5,3.2,7.6,7,7.6
					c3.2,0,6-1.7,7.4-5.3c0,3.7,2,5.3,5.6,5.3h1.4V626C549.4,626,548.3,624.5,548.3,622.4z"/>
				<path class="st2" d="M566.4,601.6c-4,0-6.6,2.6-7.5,5.3v-9.1c0-3.4-1.6-5.3-5.6-5.3h-1.5v0.5c1.9,0,3.1,1.4,3.1,3.5v29.9l4-2
					c1.7,1.2,3.4,2,5.9,2c7.1,0,10.4-6.5,10.8-12.3C575.7,608.8,573.3,601.6,566.4,601.6z M564.7,625.8c-4,0-5.8-4.6-5.9-8v-7.5
					c0-4,3-6.3,5.9-6.3c5.3,0.1,7,6.2,7.1,10.2C571.9,618.2,570.3,625.8,564.7,625.8z"/>
				<path class="st2" d="M583.6,622.4v-24.5c0-3.4-1.6-5.3-5.7-5.3h-1.4v0.5c1.9,0,3.1,1.4,3.1,3.5v24.6c0,3.4,1.6,5.3,5.7,5.3h1.4
					V626C584.8,626,583.6,624.5,583.6,622.4z"/>
				<path class="st2" d="M594.2,622.4v-15.5c0-3.4-1.6-5.3-5.6-5.3h-1.4v0.5c1.9,0,3.1,1.5,3.1,3.6v15.5c0,3.4,1.6,5.3,5.6,5.3h1.4
					V626C595.4,626,594.2,624.5,594.2,622.4z M592.2,592.5c-1.4,0-2.5,1.1-2.5,2.5c0,1.4,1.1,2.5,2.5,2.5c1.4,0,2.5-1.1,2.5-2.5
					C594.7,593.6,593.6,592.5,592.2,592.5z"/>
				<path class="st2" d="M640.6,622.4v-13.2c0-4.9-3.7-7.6-7.5-7.6c-3.2,0-6.6,1.7-8.1,5.3v-9.1c0-5.8-4.4-9.6-8.7-9.6
					c-5.5,0-8.4,4-8.4,8c0.1,2,0.8,4,2.5,5.5c-1-0.2-2-0.2-3-0.2c-2.7,0-5.3,0.6-6.6,2.5c-1.3,1.8-1.2,5.1,2.1,7.3
					c2.2,1.5,6,2.9,8.3,4.3c2.2,1.4,3.2,3.5,3.2,5.3c-0.1,2.5-2.2,4.7-6.1,4.7c-2.5,0-4.1-0.9-5-2.2c-0.6-0.8-0.8-2.1-0.7-3.3
					c0.2-1.3,1-2.4,2.5-2.3l0.3-0.3c-2.2-2.9-6.2-0.8-6.5,2.3c-0.2,1.9,0.9,3.9,2.6,5c1.8,1.2,4.4,1.6,6.8,1.6
					c5.8,0,9.3-3.6,9.2-7.5c-0.1-2.2-1.3-4.5-4-6.3c-2.6-1.7-6-2.9-8.6-4.4c-2.3-1.4-3.3-3.7-2.1-4.9c0.7-0.7,2.4-0.9,4.4-0.1
					c0.8,0.3,1.6,0.8,2.6,1.6c1.5,1,3.4,1.5,4.8,1c1.4-0.5,2.3-2,2.1-4.2l-0.6-0.1c-0.6,1.3-1.2,1.4-2.9,0.9
					c-0.3-0.1-0.7-0.2-1.1-0.3c-2.3-1.2-3.3-3.5-3.4-5.8c-0.2-3,1.9-6.3,5.8-6.5c3.2-0.1,6.4,2.1,6.4,6.8v24.6
					c0,3.4,1.6,5.3,5.6,5.3h1.4V626c-1.9,0-3.1-1.4-3.1-3.6v-12.2c-0.1-4.3,3-6.5,6-6.6c2.8,0,5.6,2,5.6,6.3v11.2
					c0,3.4,1.6,5.3,5.7,5.3h1.4V626C641.7,626,640.6,624.5,640.6,622.4z"/>
				<path class="st2" d="M650.2,622.4v-15.5c0-3.4-1.7-5.3-5.6-5.3h-1.4v0.5c1.9,0,3.1,1.4,3.1,3.5v15.5c0,3.4,1.6,5.3,5.6,5.3h1.5
					V626C651.4,626,650.2,624.5,650.2,622.4z M676.1,622.4v-13.2c0-5-3.7-7.6-7.5-7.6c-3.2,0-6.6,1.7-8.1,5.3c0-2.8-1.1-4.4-3.3-5
					c-1.7-0.6-3.6-0.6-5.3-1.2c-1-0.3-2-0.8-2.9-1.4c-0.8-0.6-1.6-1.3-2-2.1c0.4,0.2,0.7,0.3,1.1,0.3c1.4,0,2.5-1.1,2.5-2.5
					c0-1.4-1.1-2.5-2.5-2.5c-1.4,0-2.5,1.1-2.5,2.5c0,2.1,1.3,3.7,3,4.9c1,0.7,1.9,1.2,3,1.5c1.4,0.5,3.5,0.7,4.3,2.1
					c0.3,0.6,0.5,1.3,0.5,2.2v15.5c0,3.4,1.6,5.3,5.6,5.3h1.5V626c-1.9,0-3.1-1.4-3.1-3.5v-12.2c-0.1-4.2,3-6.5,6-6.5
					c2.8-0.1,5.6,2,5.6,6.3v11.2c0,3.4,1.6,5.3,5.6,5.3h1.5V626C677.2,626,676.1,624.5,676.1,622.4z"/>
				<path class="st2" d="M696.2,622.5h-10.1c-2.9,0-2.6-1.9-1.6-2.8l1.2-1.2c1.6,1,3.6,1.6,5.7,1.6c5.6,0,10.1-4.2,10.1-9.2
					c0-3-1.5-5.7-4-7.3c0.6-0.6,1.1-0.6,1.6-0.3l1,0.9c0.9,0.8,1.9,0.8,2.7,0.4c1-0.5,1.5-1.8,0.5-2.9h-0.4
					c-0.1,0.9-1.1,0.8-2.1,0.4c-1.3-0.5-2.7-0.7-3.8,1.2c-1.6-1-3.5-1.6-5.6-1.6c-5.5,0-10,4.1-10,9.2c0,2.8,1.4,5.4,3.7,7.1
					l-1.7,1.6c-3.1,2.9-1.3,7,3.1,7h11.1c3.4,0,5.2,2.4,4.9,4.4c-0.2,1.9-2.2,3.4-6.4,2l-9.1-3c-6.5-2.2-7.3,3.4-5.4,5.7l0.6-0.2
					c-0.4-1.5,0.8-2.5,3.6-1.7c2.3,0.6,6.9,2,10.4,2c4.3,0,6.6-2.1,7.3-4.5C704.6,627.2,701.8,622.5,696.2,622.5z M687.1,603.2
					c2.9-1.6,7.1,0.4,9.6,4.5c2.4,4.2,2.1,8.9-0.8,10.6c-2.9,1.6-7.1-0.4-9.6-4.5C683.9,609.6,684.2,604.8,687.1,603.2z"/>
			</g>
		</g>
		<g>
			<g>
				<g>
					<g>
						<path class="st2" d="M327.2,593.3c-11.6-0.2-22.7,4.6-34,9c-12.8,5-25.9,9.6-39.9,5.9c-9.6-2.4-17.2-8.7-23.5-18.8
							c-10-16.1-14.4-37.3-18.3-55.8c16.1-17.4,41-44.2,41-71.5h-17.4c3.3,20.1-0.6,43.2-24.4,67.8c-1.5-7.4-2.4-13.5-3.7-20.3
							c-1.3-5.5-3-11.8-5.3-15.7c-2-3.5-5.2-6.3-10.4-7.8v-8.7c0-6.6,5.4-13.5,12.8-13.5v-1.9h-40.8v1.9c7.6,0,12.9,6.8,12.9,13.5
							v88.3c0,6.6-5.4,13.5-12.9,13.5v1.8h40.8v-1.8c-7.4,0-12.8-6.8-12.8-13.5v-76.9c3.9,0.9,6.5,3.5,8.3,6.8
							c3,5.2,5.4,21.3,8.5,37c3.7,18.7,9.2,40.8,17.9,58c6.5,12.9,14,20.7,24.2,24.2c16.8,5.9,31.8,2.2,46.4-1.7
							c10.5-3,20.9-5.7,31.4-5c10.5,0.6,18.5,7.8,14.4,17.9h1.3C354.3,611.2,346.9,593.5,327.2,593.3z"/>
						<path class="st2" d="M318.5,566.7v-44c0-9.4-1.7-16.1-5.5-20.7c-4.8-5.9-13.1-8.1-25.5-8.1c-6.5,0-12.2,1.3-18.7,3.2
							c-6.3,1.7-9.6,0.7-11.6-3.2l-1.5,0.9c1.3,10.5,11.8,16.8,24,12.8c4.4-1.3,9.6-3,13.1-3.7c13.3-3.1,19.8,0.4,21.4,5.5
							c1.7,5.5-2.4,12.7-9.8,14.6c-12,3.2-29.2,7.2-34.2,8.9c-18.7,5.6-23.3,19.6-19.4,31c3.3,9.4,13.3,17.2,25.9,17.2
							c12.9,0,24.7-10.2,27.9-18.7c0,11.8,5.7,18.7,19.6,18.7h5.2v-1.8C322.8,579.2,318.5,574.3,318.5,566.7z M304.7,551.9
							c0,12.4-10.2,20.9-21.8,21.6c-10,0.5-16.8-6.3-18.7-14.4c-1.8-7.6,0.6-16.5,8.9-21.6c8.3-5.2,23.3-8.5,31.6-10.9V551.9z"/>
						<path class="st2" d="M413.7,566.7v-46.4c0-17.2-12.9-26.4-26.2-26.4c-11.3,0-23.1,5.9-28.3,18.7c0-13.1-7-18.7-19.8-18.7h-5
							v1.7c6.5,0,10.7,5.2,10.7,12.6v54.3c0,11.8,5.7,18.7,19.6,18.7h5.2v-1.8c-6.6,0-10.7-5-10.7-12.6h0v-42.5
							c-0.2-15,10.5-22.9,20.9-23.1c9.8,0,19.4,7,19.6,22v39.4c0,11.8,5.7,18.7,19.6,18.7h5.2v-1.9
							C417.8,579.2,413.7,574.3,413.7,566.7z"/>
						<path class="st2" d="M502.4,566.7v-85.9c0-11.8-5.7-18.7-19.6-18.7h-5v1.8c6.5,0,10.7,5,10.7,12.4v24.2
							c-6.1-4.3-12-6.6-20.5-6.6c-24.7,0-36.4,22.5-37.7,42.9c-0.9,19,7.4,44.3,31.8,44.3c13.8,0,23.1-9.2,26.4-18.7
							c0,11.8,5.7,18.7,19.6,18.7h5v-1.8C506.7,579.2,502.4,574.3,502.4,566.7z M488.6,550.6c0,14.2-10.3,22.2-20.5,22
							c-18.7-0.2-24.6-21.8-24.9-35.8c-0.2-13.8,5.3-40.3,24.7-40.3c14,0,20.5,16.1,20.7,28.1V550.6z"/>
						<path class="st2" d="M536.8,566.7v-85.9c0-11.8-5.7-18.7-19.8-18.7h-5v1.9c6.6,0,10.7,5,10.7,12.4v86.1
							c0,11.8,5.7,18.7,19.8,18.7h5v-1.8C540.9,579.2,536.8,574.2,536.8,566.7z"/>
						<path class="st2" d="M626.2,566.7c0,0-0.1,0.1-0.1,0.1C626.1,566.7,626.2,566.7,626.2,566.7L626.2,566.7z"/>
						<path class="st2" d="M689.6,580.9c-4.5-0.3-9.1-0.8-13.5-1.7c-1.4-0.3-3-0.8-3.8-2c-0.5-0.8-0.5-1.8-0.8-2.6
							c-1-2.6-4.2-3.5-7-3.6c-6.4-0.2-12.8,1.5-19.2,1.8c0.9-2.1,2.7-4.3,2-6.5c-0.4-1.3-1.6-2.3-2.9-2.7c-1.3-0.4-2.7-0.4-4.1-0.3
							c-8.8,0.7-16.7,5.1-24.9,8.1c-8.5,3.1-16.8,4-25.1-0.3c-5.2-2.7-9.6-6.6-13.4-11c-0.6-0.6-1.1-1.3-1.6-2
							c-5.2-7.4-5-15.5-0.7-20.7c2.8-3.3,7.4-5.4,13.3-5.4c6.8-0.2,14.4,2.4,20.5,3c9.4,0.9,15.7-2.8,18.8-8.1
							c4.4-7.4,2.6-18.5-6.3-25.7c-5.4-4.4-13.3-7.4-24-7.4c-24,0-43.6,19.4-43.6,43.6c0,17.5,11.1,34,27.4,40.4
							c11.5,4.5,24.1,3.4,35.2-1.7c6.3-2.9,12.4-6.4,19.2-8c1.8-0.4,3.7-0.7,5.5-0.8c0.9,0,1.7,0,2.6,0.2c-0.5,1.4-1.4,2.6-1.9,4
							c-0.5,1.4-0.6,3.1,0.4,4.1c1,1.1,2.6,1.2,4.1,1.1c6.7-0.3,13.3-2.7,20.1-2.4c0.8,0,1.8,0.1,2.4,0.7c0.8,0.7,0.9,2,1.4,3
							c1,2.2,3.7,3,6.2,3.4c6.4,0.9,12.9,0.3,19.4-0.3C693.2,581.1,691.4,581,689.6,580.9z M565.2,537.5
							c-3.5-15.2,0.5-29.4,11.3-35.5c11.4-6.7,24-2.2,32.1,5.2c5.5,5.2,8.7,11.3,7.9,16.1c-0.7,4.1-4.1,7-10.7,7.4
							c-5.7,0.4-12.2-1.1-18.1-1.1c-6.3,0-11.8,2-15.1,6.1c-2.6,2.8-4.1,6.6-4.1,11.4C567.1,544,566.2,540.6,565.2,537.5z"/>
					</g>
				</g>
			</g>
		</g>
		<g>
			<g>
				<path class="st2" d="M533.3,432.1c-0.1,4.2-1.5,8.3-3.7,11.8c-2.2,3.5-5.2,6.5-8.6,9c5.3-3.9,8.8-9.5,10.4-15.9
					c1-4,0.2-8-1-11.8c-1.2-3.9-2.8-7.7-4.5-11.4c-0.8-2-1.5-3.9-2-5.9c-0.8-3.5-1-7.4-0.9-11.2c0-1.3,0.1-4,0.3-8.4c0,0,0,0,0,0
					c0,0,0,0,0,0c-0.6,1.6-1.3,3.4-1.9,5.1c-3.2,9-5.7,18.8-4.5,28.4c0,0.2,0,0.4,0.1,0.6c0.4,3.1,1.3,6.1,2.3,9
					c1,3,2.4,5.8,3.1,8.9c0.5,2.1,0.6,4.2,0.3,6.3c-0.2,1.2-0.4,2.2-0.5,3.2c-0.2,0.9-0.5,1.7-1,2.5c0,0,0,0,0,0c0,0,0,0,0-0.1
					c0.3-0.7,0.6-1.5,0.7-2.4c0-0.1,0-0.2,0.1-0.3c0.4-2.2,0-7.4-0.1-7.6c0,0,0,0-0.1,0c0,0,0,0,0,0c0,0-0.6,4.1-0.6,4.1
					c0,0,0,0.1,0,0.1c0,0-0.2-1.9-0.2-2.3c0-0.2,0-0.4-0.1-0.6c-0.2-1.5-0.6-2.8-1.1-4.2c-0.6-1.5-1.4-3-2-4.5
					c-0.5-1.2-1-2.5-1.5-3.8c-0.1-0.2-0.2-0.4-0.2-0.7c-2.9-8.9-2.3-18.7,0.1-27.7c1.2-4.6,2.7-9.1,4.4-13.5
					c1.6-4.1,3.8-9.9,6.7-17.4c0,0,0,0,0,0c0,0,0,0,0,0c0,2.2-0.5,4.4-0.8,6.6c-0.2,2.1-0.4,4.2-0.6,6.3c-0.3,4.4-0.4,8.8-0.6,13.1
					c-0.1,4,0.1,8.1,1.3,12C528.7,417,533.5,423.9,533.3,432.1z"/>
			</g>
		</g>
		<g>
			<g>
				<g>
					<g>
						<path class="st2" d="M516.4,385.3c-0.1,4.3-1,8.8-2.9,13.3c-1.7,4.2-2.6,8.5-2.8,12.7c0,1.9,0.2,3.8,0.5,5.6
							c-0.8-1.7-1.3-3.5-1.6-5.5c-0.6-4.3,0.1-9,1.9-13.5c1.7-4.2,3-8.4,3.8-12.6c0.3-2,0.5-3.8,0.6-5.5
							C516.3,381.4,516.4,383.3,516.4,385.3z"/>
					</g>
				</g>
				<g>
					<path class="st2" d="M533.3,393c-0.8-1.1-1.4-2.3-2-3.6c-1.2-3.2-1.6-6.9-1-10.7c0.5-3.5,0.7-7,0.6-10.4
						c-0.1-1.4-0.3-2.7-0.5-3.9c0.5,1.2,0.9,2.5,1.2,3.8c0.7,3.3,0.8,7,0.2,10.7c-0.5,3.5-0.5,7,0.2,10.3
						C532.4,390.6,532.8,391.9,533.3,393z"/>
				</g>
				<g>
					<g>
						<path class="st2" d="M538.6,430.5c-0.6,1.1-1.4,2-2.3,2.9c0.6-1.2,1.1-2.3,1.3-3.3c0.8-2.7,0.4-4.9-1.3-7.1
							c-0.2-0.3-0.4-0.6-0.7-1c-0.1-0.1-0.2-0.3-0.3-0.4c-0.1-0.1-0.2-0.3-0.3-0.4c-0.4-0.5-0.7-1.2-1-1.8l-0.1-0.2
							c-0.6-1.5-0.8-3.1-0.7-4.5c0.1-1.3,0.5-2.5,1.1-3.5c-0.2,1.3-0.2,2.5,0,3.6c0.2,1.3,0.6,2.5,1.3,3.7l0.1,0.1
							c0.1,0.1,0.1,0.2,0.2,0.3l0.1,0.1c0.2,0.4,0.4,0.8,0.7,1.1c0.4,0.5,0.7,0.9,1.3,1.7c0.9,1.1,1.5,2.7,1.6,4.4
							C539.9,427.8,539.2,429.4,538.6,430.5z"/>
					</g>
				</g>
			</g>
		</g>
	</g>
	<g id="XMLID_00000125567641831708498410000016107615928100614822_">
		<path class="st2" d="M718,525.4c0.3-0.5,0.7-1.1,1-1.6C718.7,524.4,718.3,524.9,718,525.4z"/>
		<path class="st2" d="M721.6,519.7c0.5-0.8,1.1-1.6,1.6-2.4C722.7,518.1,722.2,519,721.6,519.7z"/>
		<path class="st2" d="M730.5,506.8c1-1.4,2-2.7,3-4.1C732.5,504.1,731.5,505.5,730.5,506.8z"/>
		<path class="st2" d="M720.6,530c0.1-0.1,0.2-0.3,0.3-0.4C720.8,529.8,720.7,529.9,720.6,530c-0.2,0.3-0.4,0.5-0.5,0.8
			C720.3,530.6,720.5,530.3,720.6,530z"/>
		<path class="st2" d="M731.8,512.7c0.3-0.4,0.5-0.7,0.8-1.1C732.3,511.9,732.1,512.3,731.8,512.7c-2.4,3.4-4.6,6.5-6.5,9.4
			c-1.6,2.4-3,4.5-4.2,6.5c1.2-1.9,2.6-4.1,4.2-6.5C727.2,519.2,729.4,516,731.8,512.7z"/>
		<path class="st2" d="M748,485c0.4-0.4,0.8-0.9,1.2-1.3C748.8,484.1,748.4,484.5,748,485c-0.4,0.4-0.8,0.9-1.2,1.3
			C747.3,485.9,747.7,485.4,748,485z"/>
		<path class="st2" d="M747.9,491.8c2.8-3.3,5.7-6.7,8.6-9.9C753.6,485.1,750.7,488.4,747.9,491.8c-1.1,1.3-2.2,2.6-3.3,4
			C745.7,494.4,746.8,493.1,747.9,491.8z"/>
		<path class="st2" d="M771,462.9c-2,1.6-4,3.4-6.1,5.2C766.9,466.2,768.9,464.5,771,462.9z"/>
		<path class="st2" d="M762.6,472.8c0.4-0.4,0.8-0.8,1.2-1.1c0.8-0.7,1.6-1.5,2.4-2.2c-0.8,0.7-1.6,1.4-2.4,2.2
			C763.4,472.1,763,472.4,762.6,472.8z"/>
		<path class="st2" d="M765.9,472c-2.2,2.2-4.4,4.5-6.6,6.8C761.5,476.5,763.7,474.2,765.9,472c1.1-1.1,2.3-2.2,3.4-3.3
			C768.1,469.8,767,470.9,765.9,472z"/>
		<path class="st2" d="M781.6,455.1c-0.8,0.5-1.6,1-2.3,1.6C780.1,456.1,780.9,455.6,781.6,455.1c0.8-0.5,1.5-1,2.3-1.5
			C783.1,454.1,782.4,454.5,781.6,455.1z"/>
		<path class="st2" d="M783.7,456.6c-0.7,0.5-1.4,1.1-2.2,1.7C782.2,457.6,783,457.1,783.7,456.6c0.3-0.3,0.7-0.5,1.1-0.8
			C784.4,456,784,456.3,783.7,456.6z"/>
		<path class="st2" d="M782.6,459.6c0.2-0.1,0.4-0.3,0.5-0.4C783,459.3,782.8,459.4,782.6,459.6c-0.3,0.3-0.7,0.6-1.1,0.9
			C781.9,460.1,782.3,459.9,782.6,459.6z"/>
		<path class="st2" d="M786.9,453.5c0.7-0.5,1.4-0.9,2.1-1.3C788.4,452.6,787.7,453.1,786.9,453.5z"/>
		<path class="st2" d="M801.1,444.8c0.9-0.3,1.7-0.6,2.5-0.9C802.9,444.2,802,444.5,801.1,444.8z"/>
		<path class="st2" d="M810.2,442.6c-0.4,0.1-0.7,0.3-1.1,0.4C809.5,442.9,809.9,442.7,810.2,442.6z"/>
		<path id="XMLID_00000145775550425222973870000004733530900972734637_" class="st2" d="M806.8,455.6c5.3,0.2,17.1-4.3,22.8-10.5
			c5.5-5.9,10-8.8,4.7-9.7c-5.3-0.9-13.4-4.5-20.5-2.1c-7.3,2.4-8.9,3.7-10.1,4.4c-1.2,0.7-0.8-0.1,0.5-1.4c1.3-1.2,1.9-4.5-1.3-2.6
			c-3.2,1.9-6.3,3-9.9,3.9c-3.7,1-8.1,5.1-10.3,7.8c-2.2,2.7-3.4,3.6-2.4,0.1c1-3.5,0.1-9-1.6-4.4c-1.7,4.7-10.5,11.5-12.9,13.6
			c-2.5,2.1-4.6,3.2-4.5,2.1c0-1-2.6,0.7-4.9,3c-2.4,2.4-13.8,10.3-18.4,13.5c-4.7,3.2-8.7,14.9-9.8,19c-1.2,4.1-3,5.3-2.6,2.3
			c0.4-3-1.6-4.1-3.6,1.1c-2,5.3-6,9.2-6.9,14.1c-0.9,5-2.3,10.3-2.9,7.2c-0.7-3-1.9-4.2-2.8,0.8c-0.9,5.1-1.1,7.1-1.1,9.1
			c0,2.1-1,1.4-1.5,0.3c-0.5-1.1-2.8-2.2-1.9,1.8c0.9,4.1-0.3,6.3,1.2,8.3c1,1.4,2.3,2.1,2.8,2.6c0.1,0.1,0.1,0.1,0.1,0.2
			c1.4,1.6,4.4,1.8,5.6,1.9c0,0,0,0,0,0c0.1,0,0.1,0,0.2,0c0.1,0,0.2,0,0.2,0c2.3-0.1,6.9-0.8,12.9-4.5c7.9-4.9,10.9-7.9,7.6-6.6
			c-3.4,1.2-6,0.7,0.4-2.5c6.2-3.1,13.6-7,15.4-8.9c1.8-2,1.1-3.5-2.7-1c-3.8,2.5-8.7,3.7-3.6,0.5c5-3.1,10.7-5.3,13.5-6.3
			c2.8-1.1,0.9-2.1-3.9-0.7c-4.9,1.4-5.8-0.6,0-2.3c5.7-1.7,15-5.3,11.3-5c-3.7,0.3-3.3,0,0.8-1c4.1-1,9.1-4.1,1.7-2.6
			c-7.6,1.5-11.4,2.3-13.7,3.3c-2.3,1-1.6-2.2,1.2-3.7c2.8-1.4,18.7-2.9,26.3-7.3c7.4-4.3,12.2-8.5,16.4-13.8c4-5.2,10.4-11.5,4-7.4
			c-6.7,4.2-15.3,7.3-20.9,6.3c-5.7-1-3.7-2.5-1.1-2.3c2.6,0.1,13.5,0.3,23.4-7.7c9.3-7.5,17.6-13.1,10.9-10.2c-7,3-11.4,0.6-13-0.3
			C800.2,456.5,801.4,455.4,806.8,455.6z M807.3,443.8c-0.4,0.2-0.9,0.4-1.3,0.6c-1.2,0.6-2.6,1.2-4,2c-0.4,0.2-0.9,0.5-1.3,0.7
			c-0.3,0.2-0.5,0.3-0.8,0.5c-0.6,0.3-1.1,0.7-1.7,1c-0.2,0.1-0.4,0.3-0.7,0.4c-0.4,0.3-0.9,0.5-1.3,0.8c-0.2,0.1-0.5,0.3-0.7,0.4
			c-0.9,0.6-1.8,1.2-2.8,1.8c-2.6,1.7-5.2,3.7-8,5.8c-0.4,0.3-0.7,0.5-1.1,0.8c-0.2,0.1-0.3,0.3-0.5,0.4c-0.2,0.1-0.4,0.3-0.5,0.4
			c-0.3,0.3-0.7,0.6-1.1,0.9c-0.4,0.3-0.7,0.6-1.1,0.9c-0.7,0.6-1.4,1.2-2.2,1.8c-0.7,0.6-1.4,1.3-2.2,1.9c-0.9,0.8-1.8,1.6-2.6,2.4
			c-0.9,0.8-1.8,1.6-2.6,2.5c-1.2,1.1-2.4,2.3-3.6,3.5c-0.4,0.4-0.8,0.8-1.1,1.1c-0.8,0.8-1.5,1.5-2.3,2.3l0,0
			c-0.8,0.8-1.5,1.6-2.3,2.3c-0.4,0.4-0.7,0.8-1.1,1.2c-0.5,0.5-0.9,1-1.4,1.5c-0.3,0.3-0.6,0.6-0.8,0.9c-0.7,0.7-1.3,1.5-2,2.2
			c-0.2,0.2-0.4,0.4-0.5,0.6c-0.6,0.6-1.2,1.3-1.7,1.9c-0.2,0.2-0.3,0.3-0.5,0.5c-0.7,0.8-1.4,1.5-2,2.3c-0.7,0.9-1.5,1.7-2.2,2.5
			c-3,3.5-5.8,7-8.6,10.4c-0.7,0.9-1.4,1.7-2.1,2.6c-1,1.3-2,2.6-3,3.8c-0.6,0.8-1.3,1.7-1.9,2.5c-0.3,0.4-0.6,0.8-0.9,1.2
			c-0.6,0.8-1.2,1.6-1.8,2.4c-0.4,0.6-0.9,1.2-1.3,1.8c-1.1,1.4-2.1,2.8-3.1,4.2c-0.2,0.3-0.4,0.5-0.6,0.8c-2,2.7-3.7,5-5.1,7.1
			c0,0.1-0.1,0.1-0.1,0.2c0,0.1-0.1,0.1-0.1,0.2c-0.2,0.3-0.4,0.5-0.5,0.8c-0.1,0.1-0.2,0.3-0.3,0.4c-0.2,0.2-0.3,0.5-0.5,0.7
			c-0.9,1.3-1.6,2.3-2.2,3.1c-0.1,0.2-0.3,0.4-0.4,0.5c-0.1,0.1-0.1,0.2-0.2,0.3c0,0-0.1,0.1-0.1,0.1c-0.1,0.1-0.1,0.2-0.2,0.2
			c-0.2,0.3-0.3,0.5-0.4,0.6c0,0,0.1-0.1,0.2-0.3c0.1-0.2,0.3-0.5,0.5-0.9c0.1-0.2,0.3-0.5,0.4-0.7c0.7-1.2,1.8-3,3.2-5.2
			c0.1-0.1,0.2-0.3,0.3-0.4c0.2-0.3,0.4-0.6,0.5-0.9l0,0c0.3-0.5,0.6-1,1-1.5c1-1.5,2.1-3.2,3.3-5c1.9-2.9,4.1-6.1,6.5-9.4
			c0.3-0.4,0.5-0.7,0.8-1.1c0.3-0.5,0.7-0.9,1-1.4c0.6-0.8,1.2-1.6,1.8-2.4c0.1-0.1,0.2-0.2,0.2-0.3c0.5-0.7,1.1-1.5,1.7-2.2
			c0.7-0.9,1.4-1.9,2.2-2.8c0.4-0.5,0.8-1,1.1-1.5c0.6-0.8,1.3-1.6,1.9-2.5c0.7-0.9,1.4-1.8,2.1-2.6c0.7-0.9,1.4-1.8,2.1-2.6
			c0.4-0.4,0.7-0.9,1.1-1.3c0.7-0.8,1.4-1.7,2.1-2.5c1.4-1.7,2.9-3.3,4.3-5c0.7-0.8,1.5-1.6,2.2-2.5c0.1-0.1,0.2-0.2,0.3-0.3
			c0.8-0.9,1.6-1.8,2.5-2.7c2.2-2.3,4.4-4.6,6.6-6.8c0.6-0.6,1.1-1.1,1.7-1.7c0.6-0.5,1.1-1.1,1.7-1.6c1.2-1.2,2.5-2.3,3.7-3.4
			c0.3-0.3,0.7-0.6,1-0.9c0.3-0.3,0.7-0.6,1-0.9c0.4-0.3,0.7-0.6,1.1-1c0.4-0.3,0.7-0.6,1.1-0.9c0.7-0.6,1.5-1.2,2.2-1.8
			c0,0,0,0,0,0c0.7-0.6,1.5-1.2,2.2-1.7c0,0,0,0,0,0c0.7-0.6,1.4-1.1,2.2-1.7c0.4-0.3,0.7-0.5,1.1-0.8c0.7-0.5,1.4-1,2.1-1.5
			c0.7-0.5,1.4-1,2.1-1.4c1-0.7,2-1.3,3-2c1.3-0.8,2.6-1.6,3.8-2.3c0.3-0.2,0.6-0.3,0.9-0.5c0.9-0.5,1.8-1,2.7-1.4
			c0.1,0,0.2-0.1,0.3-0.1c0,0,0.1,0,0.1-0.1c0.3-0.2,0.7-0.3,1-0.5c0,0,0.1,0,0.1-0.1c-0.6,0.3-1.3,0.6-1.9,0.9
			c-2.4,1.2-5,2.5-7.7,4.1c-0.7,0.4-1.4,0.8-2.1,1.3c-0.7,0.4-1.4,0.9-2.1,1.3c-1.4,0.9-2.9,1.9-4.4,2.9c-0.4,0.3-0.8,0.5-1.1,0.8
			c-0.4,0.3-0.7,0.5-1.1,0.8c-0.8,0.5-1.5,1.1-2.3,1.7l0,0c-0.4,0.3-0.8,0.6-1.2,0.9c-0.2,0.1-0.4,0.3-0.6,0.5
			c-0.2,0.2-0.4,0.3-0.6,0.5c-0.2,0.1-0.4,0.3-0.6,0.5c-0.6,0.5-1.2,0.9-1.8,1.4c-1.6,1.3-3.2,2.6-4.8,4c-0.8,0.7-1.6,1.4-2.4,2.1
			c-0.4,0.4-0.8,0.7-1.2,1.1c-0.4,0.4-0.8,0.7-1.2,1.1c-0.4,0.4-0.8,0.8-1.2,1.1c-1.2,1.1-2.4,2.3-3.6,3.5c-1.2,1.2-2.4,2.4-3.6,3.6
			c-0.4,0.4-0.8,0.8-1.2,1.2c-0.4,0.4-0.8,0.8-1.2,1.3c-2.8,3-5.6,6-8.2,9.1c-3.1,3.6-6.1,7.2-8.9,10.8c-1.5,2-3,3.9-4.5,5.8
			c-0.9,1.1-1.7,2.2-2.5,3.3c-0.4,0.5-0.7,1-1.1,1.5c-0.6,0.9-1.3,1.7-1.9,2.6c-0.6,0.8-1.2,1.7-1.8,2.5c-0.3,0.4-0.6,0.8-0.9,1.2
			c0,0,0,0,0,0c-0.3,0.4-0.6,0.8-0.8,1.2c-0.6,0.8-1.1,1.5-1.6,2.3c-0.1,0.2-0.3,0.4-0.4,0.6c-1.9,2.8-3.6,5.3-5,7.4
			c-1.5,2.3-2.7,4.1-3.5,5.4c-0.1,0.1-0.2,0.2-0.2,0.3c-0.1,0.2-0.3,0.4-0.4,0.6c-0.3,0.4-0.5,0.7-0.6,0.9c0.1-0.3,0.5-0.9,1-1.9
			c0.4-0.7,0.8-1.4,1.3-2.4c0.1-0.2,0.3-0.5,0.4-0.7c0.4-0.7,0.9-1.6,1.4-2.4c0.3-0.6,0.7-1.2,1.1-1.8c0.2-0.3,0.4-0.6,0.6-1
			c0.3-0.5,0.6-1,0.9-1.5c0.1-0.2,0.2-0.4,0.3-0.5c0.3-0.5,0.7-1.1,1-1.6c0.4-0.6,0.7-1.1,1.1-1.7c0.5-0.8,1-1.5,1.5-2.3
			c0.5-0.8,1.1-1.6,1.6-2.4c1.1-1.7,2.3-3.4,3.5-5.2c1.2-1.7,2.5-3.5,3.8-5.3c0.5-0.7,1-1.4,1.5-2.1c0.5-0.7,1-1.4,1.5-2.1
			c0.3-0.5,0.7-0.9,1.1-1.4c2.8-3.6,5.7-7.3,8.8-11c1.1-1.4,2.3-2.7,3.5-4c0.4-0.4,0.8-0.9,1.2-1.3c0.4-0.4,0.8-0.9,1.2-1.3
			c0.7-0.8,1.4-1.6,2.1-2.3c0.5-0.5,1-1,1.4-1.5c3.2-3.3,6.4-6.5,9.7-9.6c0.8-0.7,1.6-1.5,2.4-2.2c2-1.8,4-3.5,6.1-5.2
			c0.4-0.3,0.8-0.7,1.2-1c1.6-1.3,3.2-2.5,4.7-3.6c0.8-0.6,1.6-1.1,2.4-1.7c0.8-0.5,1.6-1.1,2.3-1.6c0.8-0.5,1.5-1,2.3-1.5
			c0.7-0.5,1.5-0.9,2.2-1.4c0.9-0.5,1.8-1,2.6-1.5c0.6-0.3,1.2-0.6,1.7-1c0,0,0,0,0,0c1.2-0.6,2.4-1.2,3.5-1.8
			c0.5-0.3,1.1-0.5,1.6-0.8c1-0.5,1.9-0.9,2.9-1.3c0.9-0.4,1.8-0.7,2.7-1.1c0.4-0.2,0.9-0.3,1.3-0.5c0.4-0.2,0.8-0.3,1.2-0.4
			c0.5-0.2,1.1-0.4,1.6-0.5c0.1,0,0.3-0.1,0.4-0.1c0.2-0.1,0.5-0.2,0.7-0.2c0.1,0,0.2-0.1,0.4-0.1c0.2-0.1,0.5-0.1,0.7-0.2
			c0.2-0.1,0.4-0.1,0.7-0.2c0.1,0,0.2-0.1,0.3-0.1c0.1,0,0.2-0.1,0.3-0.1c0.6-0.2,1.2-0.3,1.7-0.5c0.4-0.1,0.7-0.2,1-0.2
			c0.3-0.1,0.6-0.1,0.9-0.2c0.2,0,0.4-0.1,0.6-0.1c0.2,0,0.4-0.1,0.5-0.1c0.1,0,0.2-0.1,0.3-0.1c0.4-0.1,0.7-0.1,0.8-0.2
			c0.1,0,0.1,0,0.1,0c0,0,0,0,0,0c0,0,0.1,0,0.1,0c-0.1,0.1-0.5,0.2-1,0.3c-0.7,0.2-1.8,0.6-3.1,1.1c-0.2,0.1-0.3,0.1-0.5,0.2
			c-0.3,0.1-0.7,0.3-1.1,0.4c-0.2,0.1-0.4,0.2-0.6,0.3C808.2,443.5,807.7,443.6,807.3,443.8z"/>
		<path id="XMLID_00000007422215267548498900000015851066422164719271_" class="st2" d="M708.4,562.9c-0.3-3.6,2.9-13,4.3-15.4
			c1.4-2.4,1.5-3.8,0.7-3.9c-0.9,0-0.6-1.8,0.1-1.8c0.1,0,0.5,0,1.1,0c-1.1,0-4.1-0.2-5.6-1.9c0.1,0.2,0.2,0.4,0.1,0.6
			c-0.3,0.9-0.9,1.2-1.5,1c-0.6-0.2-1.9,0.5-2.7,2.8c-0.8,2.3-6.5,10.6-9.6,12.7c-3.1,2.1-3.2,4.2-2.9,5.8c0.3,1.6-0.2,10-1.2,13.7
			c-1.1,3.8,0.3,2.2,1.2-0.1c0.9-2.3,3.6-7.7,4.1-9.4c0.5-1.6-1-3.8,2.3-6.9c3.3-3.1,5.9-0.1,5,2.4c-0.9,2.6-2,3.1-2.9,3.4
			c-0.9,0.3-1.4,1.3-2.3,3.1c-0.9,1.9-3.8,7.1-4.6,8.5c-0.8,1.4-1.9,3.7,0.6,1.6c0,0,5.1-6.5,8.9-9.3
			C707.3,567.3,708.7,566.6,708.4,562.9z M710.3,547.9c-1.7-0.4-4.3-0.9-4.8-1.5c-0.5-0.6-0.3-2.7,0.7-2.2c0,0,2.6,1.2,4,1.4
			c1.4,0.2,2.3,0.6,2,1.1C712.1,547.1,712,548.3,710.3,547.9z"/>
	</g>
</g>
</svg>
