<?xml version="1.0" encoding="utf-8"?>
<!-- Generator: Adobe Illustrator 26.0.1, SVG Export Plug-In . SVG Version: 6.00 Build 0)  -->
<svg version="1.1" id="Layer_1" xmlns="http://www.w3.org/2000/svg" xmlns:xlink="http://www.w3.org/1999/xlink" x="0px" y="0px"
	 viewBox="0 0 1000 1000" style="enable-background:new 0 0 1000 1000;" xml:space="preserve">
<style type="text/css">
	.st0{fill:#FF6200;}
	.st1{fill:#131921;}
	.st2{fill:#F7EEEB;}
	.st3{fill:none;}
	.st4{fill:url(#XMLID_00000109719499888269143500000002123281803366859918_);}
	.st5{fill:url(#XMLID_00000166638370314689689730000008105149206266507673_);}
</style>
<g>
	<path class="st0" d="M666.5,730.9H333.5c-7.3,0-13.3-6-13.3-13.3V282.4c0-7.3,6-13.3,13.3-13.3h333.1c7.3,0,13.3,6,13.3,13.3v435.2
		C679.8,724.9,673.9,730.9,666.5,730.9z"/>
	<g>
		<g>
			<path class="st1" d="M654.9,732.8H345.1c-14.8,0-26.8-12-26.8-26.8V294c0-14.8,12-26.8,26.8-26.8h309.8c14.8,0,26.8,12,26.8,26.8
				v412C681.7,720.8,669.7,732.8,654.9,732.8z M345.1,271c-12.7,0-23,10.3-23,23v412c0,12.7,10.3,23,23,23h309.8
				c12.7,0,23-10.3,23-23V294c0-12.7-10.3-23-23-23H345.1z"/>
		</g>
	</g>
	<g>
		<g>
			<path class="st2" d="M445.9,548.1c0.1-0.1,0.2-0.2,0.3-0.4c6.6-7.1,14-15.3,21-24.2c-0.6-1.4-1.1-2.9-1.6-4.4l-0.2-0.5
				c-0.3-0.7-0.5-1.5-0.7-2.3c0-0.1-0.1-0.3-0.1-0.5c-5.1,9.9-12.4,20.1-22.5,30.5c-1.9-9.5-3.1-17.3-4.7-26
				c-1.6-7.1-3.8-15.1-6.9-20.1c-2.6-4.5-6.6-8-13.2-9.9v-11.1c0-8.5,6.9-17.2,16.3-17.2v-2.4h-52.3v2.4c9.7,0,16.5,8.7,16.5,17.2
				v113.1c0,8.5-6.9,17.2-16.5,17.2v2.4h52.3v-2.4c-9.5,0-16.3-8.7-16.3-17.2v-98.4c4.9,1.2,8.3,4.5,10.6,8.8
				c3.8,6.6,6.9,27.2,10.9,47.3c4.7,23.9,11.8,52.3,22.9,74.3c0.2,0.5,0.5,0.9,0.7,1.3v-10.2c-10-19.5-15-43.3-19.4-64.3
				C444,550.2,445,549.2,445.9,548.1z"/>
			<g transform="translate(-150, 0)">
				<path class="st2" d="M591.2,627.5c-1.8,0-3.6,0-5.4,0.2c-1.3,0.1-2.7,0.2-4,0.5c-7.4,1.1-14.7,3.4-21.9,6.2
					c-1.4,0.5-2.8,1.1-4.2,1.6c-2.6,1-5.3,2.1-8,3.2c-16.3,6.4-33.1,12.3-51.1,7.6c-2.3-0.6-4.6-1.4-6.8-2.3c-1.3-0.6-2.6-1.3-4-2
					c-7.4-4.2-13.8-10.8-19.3-19.8c0,0-0.1-0.1-0.1-0.1v10.1c5.6,9,11.9,15.4,19.4,19.6c1.3,0.7,2.6,1.4,4,1.9c1,0.4,2,0.8,3,1.1
					c21.3,7.5,40.3,3,58.8-2c0.2-0.1,0.4-0.1,0.6-0.2c1.3-0.3,2.6-0.7,3.9-1.1c7.5-2.1,14.9-3.9,22.4-4.8c1.4-0.2,2.8-0.3,4.2-0.4
					c3.2-0.2,6.4-0.3,9.7,0c13.5,0.7,23.6,9.9,18.5,22.9h1.6C626,650.5,616.5,627.8,591.2,627.5z"/>
				<path class="st2" d="M539.7,566.7c7.7,6.5,13.1,15.5,16.4,25.6c2.8,8,4.2,17.3,4.5,26.5c0.1,3.7,0,7.5-0.3,11.2
					c7.1-2.6,14.3-4.8,21.7-5.8c0.1-2.3,0-4.7-0.1-7c-0.5-8.5-2.1-17-5.2-24.8c-6.3-16.2-18.4-29.7-37-36.3c-1.3-0.5-2.6-0.9-3.9-1.3
					c-2.2-0.6-4.5-1.1-6.9-1.6c-0.8,1.8-1.7,3.7-2.7,5.5c3.4,1.3,6.6,3,9.5,5C537.1,564.6,538.4,565.6,539.7,566.7z"/>
				<path class="st2" d="M592.2,479.3c-9.4-5.7-22.7-9-40.2-9h-9.8c0.3,0.7,0.6,1.3,0.9,2l0.8,1.3h8.5c14.5,0,26.5,5.7,34.3,14.7
					c10.4,12.3,11.6,27.7,7.1,40c-3.8,10.2-11.1,18-18.5,20.1c-8,2.1-13-2.8-16.3-9.2c-3.1-6.2-4.4-13-6.3-19.3
					c-0.7,1.3-1.5,2.5-2.4,3.7c1.6,6.1,2.5,12.5,4,17.4c4,12.3,10.7,23.4,25.8,22c14.2-1.2,25.3-13,30.3-27.7
					C616.8,515.8,613,491.1,592.2,479.3z"/>
			</g>
		</g>
		<g>
			<g>
				<g>
					<g>
						<path class="st1" d="M529.2,521.6c-0.2,13.9-4.9,27.6-12.3,39.4c-7.4,11.8-17.5,21.7-28.7,30c17.7-13,29.4-31.7,34.8-52.9
							c3.3-13.2,0.5-26.6-3.2-39.3c-3.9-13.2-9.4-25.6-14.9-38.2c-2.8-6.5-5.1-13.1-6.6-19.8c-2.8-11.6-3.4-24.7-3-37.4
							c0.1-4.2,0.4-13.5,0.9-27.9c0,0,0-0.1-0.1-0.1c0,0-0.1,0-0.1,0c-2.1,5.4-4.2,11.2-6.3,17.2c-10.6,29.9-18.9,62.7-15.1,94.6
							c0,0.6,0.1,1.3,0.2,2c1.4,10.3,4.3,20.3,7.7,30c3.4,9.9,8.1,19.4,10.3,29.7c1.5,6.9,2,14,0.9,20.9c-0.6,4-1.2,7.5-1.8,10.7
							c-0.6,2.9-1.6,5.7-3.2,8.3c0,0-0.1,0-0.1,0c0,0,0-0.1,0-0.2c1.1-2.4,2-5,2.4-7.9c0.1-0.3,0.1-0.7,0.2-1.1
							c1.3-7.5-0.1-24.8-0.3-25.5c0-0.1-0.1-0.1-0.2-0.1c0,0-0.1,0.1-0.1,0.1c0,0-2,13.6-2,13.6c0,0.1,0,0.2-0.1,0.2
							c0,0-0.6-6.3-0.7-7.7c0-0.6-0.1-1.3-0.2-1.9c-0.5-4.9-1.9-9.5-3.7-14c-2-5.1-4.5-10-6.6-15c-1.8-4.1-3.5-8.3-5-12.5
							c-0.3-0.7-0.6-1.5-0.8-2.3c-9.8-29.8-7.5-62.2,0.3-92.2c4-15.3,9.1-30.3,14.5-45.1c5.2-13.7,12.6-33.1,22.3-58
							c0-0.1,0.1-0.1,0.1-0.1c0,0,0.1,0.1,0.1,0.1c-0.1,7.3-1.7,14.8-2.5,22c-0.8,6.9-1.4,13.9-2,20.9c-1.1,14.6-1.4,29.2-2,43.8
							c-0.5,13.4,0.4,27.1,4.2,40C513.7,471.3,529.6,494.3,529.2,521.6z"/>
					</g>
				</g>
				<g>
					<g>
						<g>
							<g>
								<path class="st1" d="M472.6,365.8c-0.3,14.5-3.5,29.4-9.6,44.4c-5.7,14.1-8.8,28.3-9.3,42.3c0,6.4,0.6,12.6,1.8,18.5
									c-2.5-5.6-4.3-11.8-5.3-18.3c-1.9-14.4,0.3-30,6.4-45.1c5.7-13.9,9.9-28,12.5-42.2c1.1-6.7,1.8-12.7,2.1-18.4
									C472.2,352.8,472.7,359.1,472.6,365.8z"/>
							</g>
						</g>
						<g>
							<path class="st1" d="M529.2,391.5c-2.6-3.5-4.8-7.5-6.6-11.9c-4.1-10.7-5.3-23-3.4-35.7c1.8-11.6,2.4-23.3,1.9-34.7
								c-0.4-4.7-0.9-9.1-1.6-13.1c1.6,3.9,2.9,8.2,4,12.8c2.4,11.1,2.7,23.2,0.8,35.8c-1.8,11.8-1.6,23.4,0.7,34.2
								C526.1,383.3,527.5,387.5,529.2,391.5z"/>
						</g>
						<g>
							<g>
								<path class="st1" d="M546.8,516.3c-2,3.6-4.6,6.8-7.8,9.5c2.1-4.1,3.6-7.7,4.5-11.1c2.5-8.9,1.2-16.5-4.2-23.7
									c-0.6-0.9-1.4-2.1-2.4-3.5c-0.3-0.4-0.6-0.9-0.9-1.3c-0.3-0.5-0.6-0.9-0.9-1.4c-1.2-1.7-2.3-3.9-3.2-6l-0.3-0.6
									c-1.9-5-2.6-10.2-2.2-15c0.4-4.2,1.7-8.2,3.7-11.8c-0.6,4.3-0.6,8.3,0,12c0.7,4.3,2,8.3,4.2,12.4l0.2,0.3
									c0.2,0.4,0.5,0.8,0.7,1.1l0.3,0.5c0.7,1.2,1.4,2.5,2.4,3.6c1.2,1.6,2.2,2.9,4.3,5.7c3,3.7,4.9,9,5.4,14.6
									C550.9,507.4,548.7,512.8,546.8,516.3z"/>
							</g>
						</g>
					</g>
				</g>
			</g>
		</g>
	</g>
</g>
</svg>
