<?xml version="1.0" encoding="utf-8"?>
<!-- Generator: Adobe Illustrator 26.0.1, SVG Export Plug-In . SVG Version: 6.00 Build 0)  -->
<svg version="1.1" id="Layer_1" xmlns="http://www.w3.org/2000/svg" xmlns:xlink="http://www.w3.org/1999/xlink" x="0px" y="0px"
	 viewBox="0 0 1000 1000" style="enable-background:new 0 0 1000 1000;" xml:space="preserve">
<style type="text/css">
	.st0{fill:#FF6200;}
	.st1{fill:#131921;}
	.st2{fill:#F7EEEB;}
	.st3{fill:none;}
	.st4{fill:url(#XMLID_00000120518888013491856670000017389625042329346219_);}
	.st5{fill:url(#XMLID_00000170254333427021739070000006863966657700236173_);}
</style>
<g>
	<g>
		<g>
			<g>
				<path class="st1" d="M394.1,601.5c-0.1-1.8-0.5-3.6-1.1-5.3c-1.9-4.9-6.3-8.6-13.6-8.6h-13.2v0.5c2.1,0,3.5,1.8,3.5,3.6v23.9
					c0,1.8-1.5,3.7-3.5,3.7v0.5h12.5C388.8,619.8,394.5,610.2,394.1,601.5z M377.5,619h-3.7V592c0-1.8-1.5-3.7-3.5-3.7h7.6
					c5.8,0,9.2,3.3,10.7,7.9c0.6,1.7,0.9,3.7,0.9,5.6C389.8,610,385.2,619,377.5,619z"/>
				<path class="st1" d="M402.9,615.9v-14.7c0-3.2-1.5-5.1-5.3-5.1h-1.4v0.5c1.8,0,2.9,1.3,2.9,3.3v14.7c0,3.2,1.5,5.1,5.3,5.1h1.4
					v-0.5C404,619.3,402.9,617.9,402.9,615.9z M424.7,596.2c-0.6,1.3-1.5,1.4-3.1,0.9l-1.4-0.5c-0.9-0.2-1.7-0.4-2.5-0.4
					c-3.1,0-4.9,3.1-5,5.1c0-2.2-0.8-4-3.1-4.8c-1.6-0.6-3.4-0.6-5-1.1c-0.9-0.3-1.8-0.7-2.6-1.4c-0.9-0.5-1.6-1.2-1.9-2
					c0.3,0.1,0.7,0.2,1,0.2c1.3,0,2.3-1,2.3-2.3c0-1.3-1-2.3-2.3-2.3c-1.3,0-2.3,1.1-2.3,2.3c0,2,1.2,3.5,2.8,4.6
					c1,0.6,1.8,1.1,2.9,1.5c1.3,0.4,3.3,0.7,4,2c0.4,0.5,0.5,1.2,0.5,2v14.7c0,3.2,1.5,5.1,5.4,5.1h1.3v-0.5c-1.7,0-2.9-1.3-2.9-3.3
					v-11.6c0-1.2,0.4-2.9,1.2-4c0.7-0.8,1.5-1.2,2.3-1.2c0.7,0,1.5,0.2,2.4,0.4c3.3,1.1,5.8-0.7,6.5-3.1L424.7,596.2z"/>
				<path class="st1" d="M430.5,613.6c-1.4-2-1.4-4.2-0.2-5.6c0.7-0.9,2-1.5,3.6-1.5c1.8,0,3.9,0.7,5.5,0.8c2.6,0.3,4.2-0.7,5.1-2.2
					c1.2-2,0.7-5-1.7-6.9c-1.5-1.2-3.6-2-6.5-2c-6.5,0-11.8,5.2-11.8,11.8c0,6.5,5.3,11.8,11.8,11.8c3.3,0,6.2-1.4,8.3-3.4l-0.4-0.5
					C439.9,619.7,434.1,618.2,430.5,613.6z M427.8,608c-0.9-4.1,0.2-7.9,3.1-9.6c3.1-1.8,6.5-0.6,8.7,1.4c1.5,1.4,2.3,3,2.2,4.4
					c-0.2,1.1-1.1,1.9-2.9,2c-1.5,0.1-3.3-0.3-4.9-0.3c-1.7,0-3.2,0.6-4.1,1.7c-0.7,0.7-1.1,1.8-1.1,3.1
					C428.3,609.7,428,608.8,427.8,608z"/>
				<path class="st1" d="M478.7,616.4c-0.6,0.3-1.1,0.4-1.7,0.7c-2.3,0.6-3.7-1.1-3.7-2.7c0-1.3,1-2.6,3-2.6v-14.9h5.8v-0.7h-9.4
					c2,0,3.5-1.8,3.5-3.7c0-6.1-4.8-8.9-8.5-8.9c-4.3,0-7.7,3.1-7.7,7.6c0,2.1,0.9,4,2.3,5.3c-0.8-0.2-1.7-0.3-2.8-0.3
					c-6.5,0-11.8,5.2-11.8,11.8c0,6.5,5.3,11.8,11.8,11.8c3.3,0,6.2-1.4,8.3-3.4l-0.4-0.5c-4.9,4.2-11.5,2-14.9-3.9
					c-3-5.3-2.5-11.4,1.4-13.6c3.6-1.8,5.8,0.6,7.5,1.5c3.5,1.9,6.6,0,6.4-3.5l-0.4-0.2c-0.4,1-1.1,1.2-2.1,1.1
					c-1.3-0.1-2.5-1.1-3.3-2.2c-0.7-1.1-1.2-2.5-1.2-3.9c0-4,3.2-6.5,6.5-6.5c4.2,0,7,3.9,6.8,7.5c0,3.1-1.7,4-4.6,4v0.7h2.9v17.6
					c0,3,1.7,5.3,4.8,5.3c2,0,4.4-2,5.3,0l0.4-0.3C483,617.3,482,615.1,478.7,616.4z"/>
				<path class="st1" d="M519.3,589.5c-2-1.2-4.8-1.9-8.5-1.9h-11v0.5c2,0,3.4,1.8,3.4,3.6v23.9c0,1.8-1.5,3.7-3.4,3.7v0.5h11v-0.5
					c-2,0-3.5-1.8-3.5-3.7v-20.8c1.1,0.2,1.8,0.9,2.2,1.8c1,1.7,1.2,4.2,1.7,5.8c0.8,2.6,2.2,4.9,5.5,4.6c3-0.3,5.3-2.7,6.4-5.8
					C524.5,597.2,523.7,592,519.3,589.5z M519.7,599.8c-0.8,2.2-2.3,3.8-3.9,4.3c-1.7,0.4-2.8-0.6-3.5-2c-1-1.9-1.1-4.2-2.1-5.9
					c-0.6-0.9-1.4-1.7-2.9-2.1V592c0-1.8-1.5-3.7-3.4-3.7h7c3,0,5.6,1.2,7.2,3.1C520.4,594,520.6,597.2,519.7,599.8z"/>
				<path class="st1" d="M545.7,615.9v-14.6c0-3.2-1.5-5.1-5.4-5.1H539v0.4c1.8,0,2.9,1.4,2.9,3.4v11.5c0,3.7-2.5,6-5.1,6.1
					c-2.5,0-4.8-1.7-4.8-5.8v-10.6c0-3.2-1.6-5.1-5.4-5.1h-1.3v0.4c1.8,0,2.9,1.4,2.9,3.4v12.5c0,4.3,3,7.2,6.6,7.2
					c3,0,5.6-1.6,7-5.1c0,3.5,1.9,5.1,5.3,5.1h1.4v-0.5C546.8,619.3,545.7,617.9,545.7,615.9z"/>
				<path class="st1" d="M562.8,596.2c-3.7,0-6.2,2.5-7.1,5.1v-8.6c0-3.2-1.5-5.1-5.3-5.1H549v0.5c1.8,0,2.9,1.4,2.9,3.4v28.3
					l3.8-1.8c1.6,1.1,3.3,1.8,5.5,1.8c6.7,0,9.8-6.2,10.2-11.7C571.7,603,569.4,596.2,562.8,596.2z M561.3,619.1
					c-3.7,0-5.5-4.4-5.5-7.6v-7.1c0-3.8,2.8-6,5.5-5.9c5.1,0.1,6.6,5.9,6.7,9.7C568,611.9,566.5,619.1,561.3,619.1z"/>
				<path class="st1" d="M579.2,615.9v-23.2c0-3.2-1.5-5.1-5.4-5.1h-1.3v0.5c1.8,0,2.9,1.3,2.9,3.3v23.3c0,3.2,1.6,5.1,5.4,5.1h1.3
					v-0.5C580.3,619.3,579.2,617.9,579.2,615.9z"/>
				<path class="st1" d="M589.2,615.9v-14.6c0-3.2-1.5-5.1-5.3-5.1h-1.4v0.4c1.8,0,2.9,1.4,2.9,3.4v14.7c0,3.2,1.5,5.1,5.3,5.1h1.4
					v-0.5C590.3,619.3,589.2,617.9,589.2,615.9z M587.3,587.6c-1.3,0-2.3,1.1-2.3,2.3c0,1.3,1,2.4,2.3,2.4c1.3,0,2.3-1.1,2.3-2.4
					C589.7,588.7,588.6,587.6,587.3,587.6z"/>
				<path class="st1" d="M633.1,615.9v-12.5c0-4.7-3.5-7.2-7.1-7.2c-3,0-6.2,1.6-7.6,5.1v-8.6c0-5.5-4.2-9.1-8.2-9.1
					c-5.2,0-8,3.7-8,7.6c0,1.8,0.7,3.7,2.3,5.2c-0.9-0.2-1.9-0.2-2.8-0.2c-2.6,0-5.1,0.6-6.3,2.4c-1.3,1.7-1.1,4.8,2,6.9
					c2.1,1.5,5.6,2.7,7.8,4.1c2.1,1.4,3.1,3.3,3,5.1c-0.1,2.4-2.1,4.4-5.8,4.4c-2.4,0-3.9-0.8-4.7-2.1c-0.5-0.7-0.8-2-0.7-3.1
					c0.2-1.2,0.9-2.2,2.4-2.2l0.3-0.3c-2.1-2.7-5.9-0.7-6.2,2.2c-0.2,1.8,0.8,3.7,2.5,4.7c1.7,1.1,4.2,1.5,6.4,1.5
					c5.5,0,8.8-3.4,8.7-7.1c-0.1-2.1-1.2-4.3-3.8-5.9c-2.4-1.7-5.7-2.7-8.1-4.2c-2.2-1.3-3.1-3.5-1.9-4.6c0.7-0.7,2.3-0.9,4.2,0
					c0.7,0.3,1.5,0.8,2.5,1.5c1.5,1,3.3,1.4,4.6,0.9c1.3-0.5,2.2-1.9,2-4l-0.6-0.1c-0.6,1.3-1.1,1.3-2.8,0.9c-0.3-0.1-0.7-0.2-1-0.3
					c-2.2-1.1-3.1-3.3-3.3-5.5c-0.1-2.9,1.8-6,5.5-6.2c3-0.1,6.1,2,6.1,6.4v23.3c0,3.2,1.5,5.1,5.3,5.1h1.4v-0.5
					c-1.8,0-2.9-1.4-2.9-3.4v-11.5c0-4,2.9-6.2,5.6-6.2c2.7,0,5.3,1.9,5.3,5.9v10.6c0,3.2,1.6,5.1,5.4,5.1h1.4v-0.5
					C634.2,619.3,633.1,617.9,633.1,615.9z"/>
				<path class="st1" d="M642.2,615.9v-14.7c0-3.2-1.6-5.1-5.3-5.1h-1.4v0.5c1.8,0,2.9,1.3,2.9,3.3v14.7c0,3.2,1.5,5.1,5.3,5.1h1.4
					v-0.5C643.3,619.3,642.2,617.9,642.2,615.9z M666.7,615.9v-12.5c0-4.7-3.5-7.2-7.1-7.2c-3,0-6.2,1.6-7.7,5.1
					c0-2.6-1.1-4.1-3.1-4.8c-1.6-0.6-3.4-0.6-5-1.1c-0.9-0.3-1.8-0.7-2.7-1.4c-0.8-0.5-1.5-1.2-1.9-2c0.4,0.1,0.7,0.3,1.1,0.3
					c1.3,0,2.3-1.1,2.3-2.4c0-1.3-1-2.3-2.3-2.3c-1.3,0-2.3,1.1-2.3,2.3c0,2,1.2,3.5,2.8,4.6c0.9,0.6,1.8,1.1,2.8,1.5
					c1.4,0.4,3.3,0.7,4,2c0.3,0.6,0.5,1.2,0.5,2.1v14.7c0,3.2,1.5,5.1,5.3,5.1h1.4v-0.5c-1.8,0-2.9-1.4-2.9-3.3v-11.6
					c0-4,2.9-6.2,5.7-6.2c2.6-0.1,5.3,1.8,5.3,5.9v10.6c0,3.2,1.5,5.1,5.3,5.1h1.4v-0.5C667.8,619.3,666.7,617.9,666.7,615.9z"/>
				<path class="st1" d="M685.8,616h-9.6c-2.7,0-2.5-1.8-1.6-2.7l1.2-1.1c1.5,0.9,3.4,1.5,5.4,1.5c5.3,0,9.5-4,9.5-8.8
					c0-2.9-1.5-5.4-3.7-6.9c0.5-0.6,1-0.6,1.5-0.2l0.9,0.8c0.9,0.7,1.8,0.7,2.6,0.4c1-0.5,1.4-1.7,0.5-2.8h-0.4c0,0.9-1,0.8-2,0.4
					c-1.2-0.4-2.6-0.7-3.6,1.1c-1.5-1-3.3-1.5-5.3-1.5c-5.2,0-9.5,3.9-9.5,8.8c0,2.7,1.3,5.1,3.5,6.7l-1.6,1.5
					c-2.9,2.7-1.3,6.6,2.9,6.6H687c3.2,0,4.9,2.3,4.7,4.1c-0.2,1.8-2.1,3.2-6.1,1.8l-8.6-2.8c-6.2-2.1-6.9,3.2-5.1,5.4l0.6-0.2
					c-0.4-1.4,0.8-2.3,3.4-1.7c2.2,0.6,6.5,1.9,9.9,1.9c4,0,6.2-2,6.9-4.3C693.7,620.5,691.1,616,685.8,616z M677.2,597.7
					c2.8-1.5,6.8,0.4,9.1,4.3c2.3,4,1.9,8.4-0.8,10c-2.7,1.5-6.8-0.4-9.1-4.3C674.1,603.7,674.5,599.3,677.2,597.7z"/>
			</g>
		</g>
		<g>
			<g>
				<g>
					<g>
						<path class="st1" d="M336.3,588.3c-11-0.2-21.5,4.4-32.2,8.6c-12.1,4.7-24.5,9.1-37.8,5.6c-9.1-2.3-16.3-8.2-22.2-17.8
							c-9.4-15.2-13.6-35.3-17.3-52.8c15.2-16.4,38.8-41.8,38.8-67.7h-16.4c3.1,19.1-0.5,40.9-23.1,64.2c-1.4-7-2.3-12.8-3.5-19.2
							c-1.2-5.2-2.8-11.2-5.1-14.9c-1.9-3.3-4.9-5.9-9.8-7.3v-8.2c0-6.3,5.1-12.8,12.1-12.8v-1.8h-38.7v1.8
							c7.2,0,12.2,6.5,12.2,12.8v83.6c0,6.3-5.1,12.8-12.2,12.8v1.7h38.7V575c-7,0-12.1-6.5-12.1-12.8v-72.8
							c3.7,0.9,6.1,3.3,7.9,6.5c2.8,4.9,5.1,20.1,8,35c3.5,17.7,8.8,38.7,17,54.9c6.1,12.2,13.3,19.6,22.9,22.9
							c15.9,5.6,30.1,2.1,43.9-1.6c10-2.8,19.8-5.4,29.7-4.7c10,0.5,17.5,7.3,13.6,17h1.2C362.1,605.3,355.1,588.5,336.3,588.3z"/>
						<path class="st1" d="M328.2,563.1v-41.6c0-8.9-1.6-15.2-5.2-19.6c-4.6-5.6-12.4-7.7-24.2-7.7c-6.1,0-11.5,1.2-17.7,3
							c-5.9,1.6-9.1,0.7-11-3l-1.4,0.9c1.2,10,11.2,15.9,22.7,12.1c4.2-1.2,9.1-2.8,12.4-3.5c12.6-3,18.7,0.4,20.3,5.2
							c1.6,5.2-2.3,12.1-9.3,13.8c-11.4,3-27.6,6.8-32.4,8.4c-17.7,5.3-22,18.6-18.4,29.4c3.2,8.9,12.6,16.3,24.5,16.3
							c12.2,0,23.4-9.6,26.4-17.7c0,11.2,5.4,17.7,18.6,17.7h4.9V575C332.2,575,328.2,570.3,328.2,563.1z M315,549.1
							c0,11.7-9.6,19.8-20.6,20.5c-9.4,0.5-15.9-5.9-17.7-13.6c-1.7-7.2,0.5-15.6,8.4-20.5c7.9-4.9,22-8,29.9-10.3V549.1z"/>
						<path class="st1" d="M418.3,563.1v-43.9c0-16.3-12.2-25-24.8-25c-10.7,0-21.9,5.6-26.8,17.7c0-12.4-6.6-17.7-18.7-17.7h-4.7
							v1.6c6.1,0,10.1,4.9,10.1,11.9v51.4c0,11.2,5.4,17.7,18.6,17.7h4.9V575c-6.3,0-10.1-4.7-10.1-11.9h0v-40.2
							c-0.2-14.2,10-21.7,19.8-21.9c9.3,0,18.4,6.6,18.6,20.8v37.3c0,11.2,5.4,17.7,18.5,17.7h4.9V575
							C422.1,575,418.3,570.3,418.3,563.1z"/>
						<path class="st1" d="M502.3,563.1v-81.3c0-11.2-5.4-17.7-18.5-17.7h-4.7v1.7c6.1,0,10.2,4.7,10.2,11.7v22.9
							c-5.8-4-11.4-6.3-19.4-6.3c-23.4,0-34.5,21.3-35.7,40.6c-0.9,18,7,42,30.1,42c13.1,0,21.9-8.7,25-17.7
							c0,11.2,5.4,17.7,18.5,17.7h4.7V575C506.3,575,502.3,570.3,502.3,563.1z M489.2,547.9c0,13.5-9.8,21-19.4,20.8
							c-17.7-0.2-23.3-20.6-23.6-33.9c-0.2-13.1,5.1-38.1,23.4-38.1c13.3,0,19.4,15.2,19.6,26.6V547.9z"/>
						<path class="st1" d="M534.9,563.1v-81.3c0-11.2-5.4-17.7-18.7-17.7h-4.7v1.8c6.3,0,10.1,4.7,10.1,11.7v81.5
							c0,11.2,5.4,17.7,18.7,17.7h4.7V575C538.7,575,534.9,570.3,534.9,563.1z"/>
						<path class="st1" d="M619.5,563.1c0,0-0.1,0.1-0.1,0.1C619.4,563.2,619.5,563.2,619.5,563.1L619.5,563.1z"/>
						<path class="st1" d="M679.5,576.6c-4.3-0.3-8.6-0.7-12.8-1.6c-1.4-0.3-2.9-0.7-3.6-1.9c-0.4-0.8-0.5-1.7-0.8-2.5
							c-0.9-2.5-4-3.3-6.6-3.4c-6.1-0.2-12.1,1.4-18.2,1.7c0.9-2,2.5-4.1,1.9-6.2c-0.4-1.2-1.5-2.2-2.8-2.6
							c-1.2-0.4-2.6-0.4-3.9-0.3c-8.4,0.7-15.8,4.9-23.6,7.7c-8.1,2.9-15.9,3.8-23.8-0.3c-4.9-2.5-9.1-6.2-12.7-10.4
							c-0.5-0.6-1-1.2-1.5-1.9c-4.9-7-4.7-14.7-0.7-19.6c2.6-3.1,7-5.1,12.6-5.1c6.5-0.2,13.7,2.3,19.4,2.8
							c8.9,0.9,14.9-2.6,17.8-7.7c4.2-7,2.4-17.5-5.9-24.3c-5.1-4.2-12.6-7-22.7-7c-22.7,0-41.3,18.4-41.3,41.3
							c0,16.6,10.5,32.2,25.9,38.3c10.8,4.3,22.9,3.2,33.3-1.6c6-2.7,11.8-6.1,18.2-7.6c1.7-0.4,3.5-0.7,5.2-0.8
							c0.8,0,1.6,0,2.4,0.2c-0.5,1.3-1.3,2.5-1.8,3.8s-0.5,2.9,0.4,3.9c0.9,1,2.5,1.1,3.9,1.1c6.4-0.3,12.6-2.5,19-2.3
							c0.8,0,1.7,0.1,2.3,0.6c0.8,0.7,0.9,1.9,1.3,2.8c1,2.1,3.5,2.9,5.8,3.2c6.1,0.9,12.2,0.3,18.4-0.2
							C683,576.8,681.3,576.7,679.5,576.6z M561.8,535.5c-3.3-14.4,0.5-27.8,10.7-33.6c10.8-6.3,22.7-2.1,30.4,4.9
							c5.2,4.9,8.2,10.7,7.5,15.2c-0.7,3.9-3.8,6.7-10.1,7c-5.4,0.4-11.5-1-17.1-1c-5.9,0-11.2,1.9-14.3,5.8
							c-2.4,2.6-3.9,6.3-3.9,10.8C563.5,541.6,562.6,538.5,561.8,535.5z"/>
					</g>
				</g>
			</g>
		</g>
		<g>
			<g>
				<path class="st0" d="M531.6,435.7c-0.1,4-1.4,7.8-3.5,11.2c-2.1,3.3-5,6.2-8.2,8.5c5-3.7,8.4-9,9.9-15c0.9-3.7,0.1-7.6-0.9-11.2
					c-1.1-3.7-2.7-7.3-4.2-10.8c-0.8-1.8-1.4-3.7-1.9-5.6c-0.8-3.3-1-7-0.9-10.6c0-1.2,0.1-3.8,0.2-7.9c0,0,0,0,0,0c0,0,0,0,0,0
					c-0.6,1.5-1.2,3.2-1.8,4.9c-3,8.5-5.4,17.8-4.3,26.9c0,0.2,0,0.4,0.1,0.6c0.4,2.9,1.2,5.8,2.2,8.5c1,2.8,2.3,5.5,2.9,8.4
					c0.4,1.9,0.6,4,0.3,5.9c-0.2,1.1-0.3,2.1-0.5,3c-0.2,0.8-0.5,1.6-0.9,2.4c0,0,0,0,0,0c0,0,0,0,0,0c0.3-0.7,0.6-1.4,0.7-2.2
					c0-0.1,0-0.2,0-0.3c0.4-2.1,0-7-0.1-7.2c0,0,0,0,0,0c0,0,0,0,0,0c0,0-0.6,3.9-0.6,3.9c0,0,0,0,0,0c0,0-0.2-1.8-0.2-2.2
					c0-0.2,0-0.4,0-0.5c-0.1-1.4-0.5-2.7-1.1-4c-0.6-1.5-1.3-2.9-1.9-4.3c-0.5-1.2-1-2.3-1.4-3.6c-0.1-0.2-0.2-0.4-0.2-0.6
					c-2.8-8.5-2.1-17.7,0.1-26.2c1.1-4.4,2.6-8.6,4.1-12.8c1.5-3.9,3.6-9.4,6.3-16.5c0,0,0,0,0,0c0,0,0,0,0,0c0,2.1-0.5,4.2-0.7,6.3
					c-0.2,2-0.4,4-0.6,5.9c-0.3,4.1-0.4,8.3-0.6,12.4c-0.1,3.8,0.1,7.7,1.2,11.4C527.2,421.4,531.7,427.9,531.6,435.7z"/>
			</g>
		</g>
		<g>
			<g>
				<g>
					<g>
						<path class="st0" d="M515.5,391.4c-0.1,4.1-1,8.3-2.7,12.6c-1.6,4-2.5,8-2.6,12c0,1.8,0.2,3.6,0.5,5.3
							c-0.7-1.6-1.2-3.4-1.5-5.2c-0.6-4.1,0.1-8.5,1.8-12.8c1.6-3.9,2.8-8,3.6-12c0.3-1.9,0.5-3.6,0.6-5.2
							C515.4,387.7,515.5,389.5,515.5,391.4z"/>
					</g>
				</g>
				<g>
					<path class="st0" d="M531.6,398.7c-0.7-1-1.4-2.1-1.9-3.4c-1.2-3-1.5-6.5-1-10.1c0.5-3.3,0.7-6.6,0.5-9.9
						c-0.1-1.3-0.2-2.6-0.4-3.7c0.5,1.1,0.8,2.3,1.1,3.6c0.7,3.2,0.8,6.6,0.2,10.2c-0.5,3.4-0.5,6.6,0.2,9.7
						C530.7,396.4,531.1,397.6,531.6,398.7z"/>
				</g>
				<g>
					<g>
						<path class="st0" d="M536.6,434.2c-0.6,1-1.3,1.9-2.2,2.7c0.6-1.2,1-2.2,1.3-3.2c0.7-2.5,0.3-4.7-1.2-6.7
							c-0.2-0.3-0.4-0.6-0.7-1c-0.1-0.1-0.2-0.3-0.3-0.4c-0.1-0.1-0.2-0.3-0.3-0.4c-0.4-0.5-0.6-1.1-0.9-1.7l-0.1-0.2
							c-0.5-1.4-0.7-2.9-0.6-4.3c0.1-1.2,0.5-2.3,1.1-3.3c-0.2,1.2-0.2,2.4,0,3.4c0.2,1.2,0.6,2.4,1.2,3.5l0,0.1
							c0.1,0.1,0.1,0.2,0.2,0.3l0.1,0.1c0.2,0.4,0.4,0.7,0.7,1c0.4,0.4,0.6,0.8,1.2,1.6c0.8,1,1.4,2.6,1.5,4.1
							C537.7,431.6,537.1,433.2,536.6,434.2z"/>
					</g>
				</g>
			</g>
		</g>
	</g>
	<g id="XMLID_00000096051230777895940270000010611692999834722707_">
		<path class="st3" d="M706.4,524.1c0.3-0.5,0.6-1,1-1.5C707.1,523.1,706.8,523.6,706.4,524.1z"/>
		<path class="st3" d="M709.9,518.7c0.5-0.8,1-1.5,1.5-2.3C710.9,517.2,710.4,517.9,709.9,518.7z"/>
		<path class="st3" d="M718.3,506.5c0.9-1.3,1.9-2.6,2.9-3.9C720.2,503.9,719.2,505.2,718.3,506.5z"/>
		<path class="st3" d="M708.9,528.4c0.1-0.1,0.2-0.3,0.3-0.4C709.1,528.2,709,528.3,708.9,528.4c-0.2,0.3-0.3,0.5-0.5,0.7
			C708.6,528.9,708.8,528.7,708.9,528.4z"/>
		<path class="st3" d="M719.5,512c0.2-0.3,0.5-0.7,0.7-1C720,511.3,719.8,511.6,719.5,512c-2.3,3.2-4.3,6.2-6.2,8.9
			c-1.5,2.3-2.9,4.3-4,6.1c1.2-1.8,2.5-3.9,4-6.1C715.2,518.2,717.2,515.2,719.5,512z"/>
		<path class="st3" d="M734.9,485.8c0.4-0.4,0.7-0.8,1.1-1.2C735.6,484.9,735.3,485.4,734.9,485.8c-0.4,0.4-0.7,0.8-1.1,1.3
			C734.1,486.6,734.5,486.2,734.9,485.8z"/>
		<path class="st3" d="M734.7,492.2c2.6-3.2,5.4-6.3,8.2-9.4C740.1,485.9,737.4,489,734.7,492.2c-1,1.2-2.1,2.5-3.1,3.8
			C732.7,494.7,733.7,493.4,734.7,492.2z"/>
		<path class="st3" d="M756.6,464.8c-1.9,1.6-3.8,3.2-5.7,4.9C752.8,468,754.7,466.4,756.6,464.8z"/>
		<path class="st3" d="M748.7,474.3c0.4-0.4,0.8-0.7,1.1-1.1c0.7-0.7,1.5-1.4,2.2-2.1c-0.8,0.7-1.5,1.4-2.2,2.1
			C749.5,473.5,749.1,473.9,748.7,474.3z"/>
		<path class="st3" d="M751.8,473.5c-2.1,2.1-4.2,4.2-6.3,6.4C747.6,477.7,749.7,475.6,751.8,473.5c1.1-1.1,2.1-2.1,3.2-3.1
			C753.9,471.4,752.8,472.5,751.8,473.5z"/>
		<path class="st3" d="M766.7,457.4c-0.7,0.5-1.5,1-2.2,1.5C765.2,458.4,766,457.9,766.7,457.4c0.7-0.5,1.4-0.9,2.1-1.4
			C768.1,456.5,767.4,457,766.7,457.4z"/>
		<path class="st3" d="M768.6,458.9c-0.7,0.5-1.4,1-2,1.6C767.3,459.9,767.9,459.4,768.6,458.9c0.3-0.3,0.7-0.5,1-0.7
			C769.3,458.4,769,458.6,768.6,458.9z"/>
		<path class="st3" d="M767.6,461.7c0.2-0.1,0.3-0.3,0.5-0.4C767.9,461.4,767.8,461.6,767.6,461.7c-0.3,0.3-0.7,0.5-1,0.8
			C766.9,462.3,767.3,462,767.6,461.7z"/>
		<path class="st3" d="M771.7,456c0.7-0.4,1.4-0.9,2-1.3C773.1,455.1,772.4,455.5,771.7,456z"/>
		<path class="st3" d="M785.2,447.8c0.8-0.3,1.6-0.6,2.4-0.9C786.8,447.1,786,447.4,785.2,447.8z"/>
		<path class="st3" d="M793.8,445.6c-0.3,0.1-0.7,0.3-1,0.4C793.1,445.9,793.4,445.8,793.8,445.6z"/>
		
			<linearGradient id="XMLID_00000035504759480576005110000009390962294957622156_" gradientUnits="userSpaceOnUse" x1="927.0106" y1="373.1028" x2="828.1019" y2="483.8599" gradientTransform="matrix(0.8763 0.4817 -0.4817 0.8763 192.9906 -314.2534)">
			<stop  offset="0" style="stop-color:#FF6200"/>
			<stop  offset="0.8523" style="stop-color:#A62221"/>
			<stop  offset="0.9944" style="stop-color:#662221"/>
		</linearGradient>
		
			<path id="XMLID_00000000188632375632834230000007200264504859454873_" style="fill:url(#XMLID_00000035504759480576005110000009390962294957622156_);" d="
			M790.5,457.9c5,0.2,16.2-4.1,21.6-10c5.2-5.6,9.5-8.3,4.5-9.2c-5.1-0.9-12.7-4.2-19.4-2c-6.9,2.3-8.4,3.5-9.5,4.2
			c-1.1,0.7-0.8-0.1,0.4-1.3c1.2-1.2,1.8-4.2-1.2-2.5c-3,1.8-5.9,2.8-9.4,3.7c-3.5,0.9-7.7,4.8-9.7,7.4c-2.1,2.6-3.3,3.4-2.3,0.1
			c0.9-3.3,0.1-8.5-1.5-4.2c-1.6,4.5-9.9,10.9-12.2,12.8c-2.4,2-4.3,3-4.3,2c0-1-2.4,0.7-4.6,2.9c-2.3,2.2-13.1,9.8-17.4,12.7
			c-4.4,3-8.2,14.1-9.3,17.9c-1.1,3.9-2.9,5-2.4,2.1c0.4-2.8-1.5-3.9-3.4,1.1c-1.9,5.1-5.7,8.7-6.5,13.3c-0.8,4.7-2.1,9.7-2.8,6.8
			c-0.6-2.9-1.8-3.9-2.6,0.8c-0.9,4.8-1.1,6.7-1.1,8.7c0,2-1,1.3-1.4,0.3c-0.4-1-2.6-2.1-1.8,1.7c0.8,3.8-0.2,6,1.1,7.9
			c1,1.3,2.1,1.9,2.6,2.5c0,0.1,0.1,0.1,0.1,0.2c1.3,1.5,4.2,1.7,5.3,1.8c0,0,0,0,0,0c0.1,0,0.1,0,0.2,0c0.1,0,0.2,0,0.2,0
			c2.1-0.1,6.5-0.7,12.2-4.3c7.5-4.7,10.3-7.4,7.2-6.3c-3.2,1.2-5.6,0.6,0.4-2.4c5.9-3,12.8-6.6,14.6-8.5c1.7-1.8,1-3.3-2.5-1
			c-3.6,2.4-8.3,3.5-3.4,0.5c4.8-3,10.1-5,12.8-6c2.6-1,0.9-2-3.6-0.7c-4.6,1.3-5.5-0.6,0-2.2c5.4-1.6,14.2-5,10.7-4.7
			c-3.5,0.2-3.1,0,0.8-1c3.9-0.9,8.6-3.9,1.6-2.5c-7.2,1.5-10.8,2.1-13,3.1c-2.2,1-1.5-2.1,1.2-3.5c2.6-1.3,17.7-2.7,24.9-6.9
			c7-4.1,11.6-8,15.6-13.1c3.8-4.9,9.9-10.9,3.8-7c-6.3,4-14.5,6.9-19.8,6c-5.4-0.9-3.5-2.3-1-2.2c2.5,0.1,12.8,0.2,22.1-7.3
			c8.8-7.1,16.7-12.4,10.3-9.7c-6.6,2.8-10.8,0.5-12.4-0.3C784.3,458.8,785.4,457.8,790.5,457.9z M791,446.8
			c-0.4,0.2-0.8,0.4-1.3,0.6c-1.2,0.5-2.5,1.2-3.8,1.9c-0.4,0.2-0.8,0.4-1.2,0.7c-0.3,0.1-0.5,0.3-0.8,0.4c-0.5,0.3-1.1,0.6-1.6,0.9
			c-0.2,0.1-0.4,0.2-0.6,0.4c-0.4,0.3-0.8,0.5-1.3,0.8c-0.2,0.1-0.4,0.3-0.6,0.4c-0.9,0.5-1.7,1.1-2.6,1.7c-2.4,1.6-5,3.5-7.5,5.5
			c-0.3,0.3-0.7,0.5-1,0.8c-0.2,0.1-0.3,0.3-0.5,0.4c-0.2,0.1-0.3,0.3-0.5,0.4c-0.3,0.3-0.7,0.5-1,0.8c-0.3,0.3-0.7,0.6-1,0.8
			c-0.7,0.6-1.3,1.2-2,1.7c-0.7,0.6-1.4,1.2-2.1,1.8c-0.8,0.7-1.7,1.5-2.5,2.3c-0.8,0.8-1.7,1.6-2.5,2.4c-1.1,1.1-2.3,2.2-3.4,3.3
			c-0.4,0.4-0.7,0.7-1.1,1.1c-0.7,0.7-1.4,1.4-2.1,2.2l0,0c-0.7,0.7-1.4,1.5-2.1,2.2c-0.4,0.4-0.7,0.8-1.1,1.1
			c-0.4,0.5-0.9,0.9-1.3,1.4c-0.3,0.3-0.5,0.6-0.8,0.9c-0.6,0.7-1.3,1.4-1.9,2.1c-0.2,0.2-0.3,0.4-0.5,0.6c-0.5,0.6-1.1,1.2-1.6,1.8
			c-0.1,0.2-0.3,0.3-0.4,0.5c-0.6,0.7-1.3,1.5-1.9,2.2c-0.7,0.8-1.4,1.6-2.1,2.4c-2.8,3.3-5.5,6.6-8.1,9.8c-0.7,0.8-1.3,1.6-1.9,2.5
			c-1,1.2-1.9,2.4-2.8,3.6c-0.6,0.8-1.2,1.6-1.8,2.3c-0.3,0.4-0.6,0.8-0.9,1.1c-0.6,0.8-1.2,1.5-1.7,2.3c-0.4,0.6-0.8,1.1-1.3,1.7
			c-1,1.4-2,2.7-2.9,4c-0.2,0.3-0.4,0.5-0.6,0.8c-1.8,2.5-3.5,4.8-4.8,6.7c0,0.1-0.1,0.1-0.1,0.2c0,0.1-0.1,0.1-0.1,0.2
			c-0.2,0.3-0.4,0.5-0.5,0.7c-0.1,0.1-0.2,0.2-0.2,0.4c-0.2,0.2-0.3,0.5-0.5,0.7c-0.9,1.2-1.6,2.2-2.1,3c-0.1,0.2-0.2,0.4-0.3,0.5
			c-0.1,0.1-0.1,0.2-0.2,0.3c0,0-0.1,0.1-0.1,0.1c-0.1,0.1-0.1,0.2-0.2,0.2c-0.2,0.3-0.3,0.5-0.4,0.5c0,0,0.1-0.1,0.2-0.3
			c0.1-0.2,0.3-0.5,0.5-0.8c0.1-0.2,0.3-0.4,0.4-0.7c0.7-1.1,1.7-2.8,3.1-4.9c0.1-0.1,0.2-0.3,0.3-0.4c0.2-0.3,0.3-0.5,0.5-0.8l0,0
			c0.3-0.5,0.6-0.9,0.9-1.4c0.9-1.4,2-3,3.1-4.7c1.8-2.7,3.9-5.7,6.2-8.9c0.2-0.3,0.5-0.7,0.7-1c0.3-0.4,0.6-0.9,1-1.3
			c0.5-0.8,1.1-1.5,1.7-2.3c0.1-0.1,0.2-0.2,0.2-0.3c0.5-0.7,1-1.4,1.6-2.1c0.7-0.9,1.3-1.8,2-2.7c0.4-0.5,0.7-0.9,1.1-1.4
			c0.6-0.8,1.2-1.5,1.8-2.3c0.7-0.8,1.3-1.7,2-2.5c0.7-0.8,1.3-1.7,2-2.5c0.4-0.4,0.7-0.9,1.1-1.3c0.7-0.8,1.3-1.6,2-2.4
			c1.3-1.6,2.7-3.2,4.1-4.7c0.7-0.8,1.4-1.6,2.1-2.3c0.1-0.1,0.2-0.2,0.3-0.3c0.8-0.9,1.6-1.7,2.3-2.5c2.1-2.2,4.2-4.4,6.3-6.4
			c0.5-0.5,1.1-1,1.6-1.6c0.5-0.5,1.1-1,1.6-1.5c1.2-1.1,2.3-2.2,3.5-3.2c0.3-0.3,0.6-0.6,0.9-0.8c0.3-0.3,0.6-0.5,0.9-0.8
			c0.3-0.3,0.7-0.6,1-0.9c0.3-0.3,0.7-0.6,1-0.9c0.7-0.6,1.4-1.1,2.1-1.7c0,0,0,0,0,0c0.7-0.6,1.4-1.1,2.1-1.6c0,0,0,0,0,0
			c0.7-0.5,1.4-1.1,2-1.6c0.3-0.3,0.7-0.5,1-0.7c0.7-0.5,1.3-1,2-1.4c0.7-0.5,1.3-0.9,2-1.3c1-0.6,1.9-1.3,2.9-1.9
			c1.2-0.8,2.4-1.5,3.6-2.2c0.3-0.2,0.6-0.3,0.9-0.5c0.9-0.5,1.7-0.9,2.5-1.3c0.1,0,0.2-0.1,0.3-0.1c0,0,0.1,0,0.1,0
			c0.3-0.2,0.6-0.3,0.9-0.5c0,0,0.1,0,0.1-0.1c-0.6,0.3-1.2,0.6-1.8,0.8c-2.3,1.1-4.7,2.4-7.3,3.9c-0.7,0.4-1.3,0.8-2,1.2
			c-0.7,0.4-1.3,0.8-2,1.3c-1.4,0.9-2.7,1.8-4.1,2.8c-0.4,0.3-0.7,0.5-1.1,0.7c-0.4,0.3-0.7,0.5-1.1,0.8c-0.7,0.5-1.4,1.1-2.2,1.6
			l0,0c-0.4,0.3-0.7,0.5-1.1,0.8c-0.2,0.1-0.4,0.3-0.5,0.4c-0.2,0.1-0.4,0.3-0.5,0.4c-0.2,0.1-0.4,0.3-0.5,0.4
			c-0.6,0.4-1.1,0.9-1.7,1.3c-1.5,1.2-3,2.5-4.5,3.8c-0.7,0.7-1.5,1.3-2.3,2c-0.4,0.3-0.8,0.7-1.1,1c-0.4,0.3-0.8,0.7-1.1,1
			c-0.4,0.4-0.8,0.7-1.1,1.1c-1.1,1.1-2.3,2.2-3.4,3.3c-1.1,1.1-2.3,2.3-3.4,3.4c-0.4,0.4-0.7,0.8-1.1,1.2c-0.4,0.4-0.8,0.8-1.1,1.2
			c-2.6,2.8-5.3,5.7-7.8,8.6c-2.9,3.4-5.8,6.8-8.4,10.2c-1.5,1.8-2.9,3.7-4.2,5.5c-0.8,1.1-1.6,2.1-2.4,3.2c-0.3,0.5-0.7,0.9-1,1.4
			c-0.6,0.8-1.2,1.6-1.8,2.4c-0.6,0.8-1.1,1.6-1.7,2.3c-0.3,0.4-0.5,0.8-0.8,1.1c0,0,0,0,0,0c-0.3,0.4-0.5,0.7-0.8,1.1
			c-0.5,0.7-1,1.5-1.5,2.2c-0.1,0.2-0.2,0.4-0.4,0.5c-1.8,2.6-3.4,5-4.8,7c-1.4,2.2-2.6,3.9-3.3,5.1c-0.1,0.1-0.1,0.2-0.2,0.3
			c-0.1,0.2-0.2,0.4-0.4,0.6c-0.3,0.4-0.4,0.7-0.5,0.9c0.1-0.2,0.5-0.9,1-1.8c0.3-0.6,0.8-1.4,1.3-2.3c0.1-0.2,0.3-0.4,0.4-0.7
			c0.4-0.7,0.9-1.5,1.4-2.3c0.3-0.5,0.7-1.1,1-1.7c0.2-0.3,0.4-0.6,0.6-0.9c0.3-0.5,0.6-1,0.9-1.4c0.1-0.2,0.2-0.3,0.3-0.5
			c0.3-0.5,0.6-1,1-1.5c0.3-0.5,0.7-1.1,1-1.6c0.5-0.7,0.9-1.5,1.4-2.2c0.5-0.8,1-1.5,1.5-2.3c1-1.6,2.2-3.2,3.3-4.9
			c1.1-1.6,2.3-3.3,3.6-5c0.5-0.6,0.9-1.3,1.4-1.9c0.5-0.7,1-1.3,1.5-2c0.3-0.4,0.7-0.9,1-1.3c2.6-3.4,5.4-6.9,8.3-10.4
			c1.1-1.3,2.2-2.6,3.3-3.8c0.4-0.4,0.7-0.8,1.1-1.3c0.4-0.4,0.7-0.8,1.1-1.2c0.7-0.7,1.3-1.5,2-2.2c0.5-0.5,0.9-1,1.4-1.5
			c3-3.1,6.1-6.2,9.2-9.1c0.8-0.7,1.5-1.4,2.3-2.1c1.9-1.7,3.8-3.3,5.7-4.9c0.4-0.3,0.8-0.6,1.2-0.9c1.5-1.2,3-2.3,4.5-3.4
			c0.8-0.5,1.5-1.1,2.2-1.6c0.7-0.5,1.5-1,2.2-1.5c0.7-0.5,1.4-0.9,2.1-1.4c0.7-0.4,1.4-0.9,2.1-1.3c0.8-0.5,1.7-1,2.5-1.4
			c0.6-0.3,1.1-0.6,1.6-0.9c0,0,0,0,0,0c1.1-0.6,2.2-1.2,3.3-1.7c0.5-0.2,1-0.5,1.5-0.7c0.9-0.4,1.8-0.8,2.7-1.2
			c0.9-0.4,1.7-0.7,2.5-1c0.4-0.2,0.8-0.3,1.2-0.5c0.4-0.1,0.8-0.3,1.2-0.4c0.5-0.2,1-0.3,1.5-0.5c0.1,0,0.2-0.1,0.4-0.1
			c0.2-0.1,0.5-0.1,0.7-0.2c0.1,0,0.2-0.1,0.3-0.1c0.2-0.1,0.4-0.1,0.7-0.2c0.2-0.1,0.4-0.1,0.6-0.2c0.1,0,0.2-0.1,0.3-0.1
			c0.1,0,0.2-0.1,0.3-0.1c0.6-0.2,1.1-0.3,1.7-0.4c0.3-0.1,0.7-0.2,1-0.2s0.6-0.1,0.9-0.2c0.2,0,0.4-0.1,0.6-0.1
			c0.2,0,0.3-0.1,0.5-0.1c0.1,0,0.2,0,0.3-0.1c0.3-0.1,0.6-0.1,0.8-0.2c0.1,0,0.1,0,0.1,0c0,0,0,0,0,0c0,0,0.1,0,0.1,0
			c-0.1,0-0.5,0.2-1,0.3c-0.7,0.2-1.7,0.6-2.9,1.1c-0.2,0.1-0.3,0.1-0.5,0.2c-0.3,0.1-0.7,0.3-1,0.4c-0.2,0.1-0.4,0.2-0.6,0.2
			C791.8,446.5,791.4,446.6,791,446.8z"/>
		<path id="XMLID_00000080906649302114702940000017946077024619044765_" class="st0" d="M697.4,559.6c-0.3-3.4,2.8-12.3,4.1-14.6
			c1.3-2.2,1.5-3.6,0.6-3.6c-0.8,0-0.6-1.7,0.1-1.7c0.1,0,0.5,0,1,0c-1,0-3.9-0.2-5.3-1.8c0.1,0.2,0.2,0.4,0.1,0.6
			c-0.3,0.9-0.9,1.1-1.4,1c-0.6-0.2-1.8,0.5-2.6,2.6c-0.8,2.2-6.2,10-9.1,12c-3,2-3.1,4-2.7,5.5c0.3,1.5-0.2,9.4-1.1,13
			c-1,3.6,0.3,2.1,1.2-0.1c0.9-2.2,3.4-7.3,3.9-8.9c0.5-1.5-0.9-3.6,2.2-6.5c3.1-2.9,5.6-0.1,4.8,2.3c-0.9,2.4-1.9,3-2.7,3.3
			c-0.9,0.3-1.4,1.2-2.2,3c-0.8,1.8-3.6,6.7-4.3,8.1c-0.7,1.3-1.8,3.5,0.5,1.6c0,0,4.8-6.1,8.4-8.8
			C696.3,563.7,697.7,563,697.4,559.6z M699.2,545.3c-1.6-0.4-4.1-0.9-4.5-1.4c-0.5-0.6-0.3-2.5,0.7-2.1c0,0,2.5,1.1,3.8,1.3
			c1.3,0.2,2.2,0.5,1.9,1C700.9,544.6,700.8,545.7,699.2,545.3z"/>
	</g>
</g>
</svg>
