<?xml version="1.0" encoding="utf-8"?>
<!-- Generator: Adobe Illustrator 26.0.1, SVG Export Plug-In . SVG Version: 6.00 Build 0)  -->
<svg version="1.1" id="Layer_1" xmlns="http://www.w3.org/2000/svg" xmlns:xlink="http://www.w3.org/1999/xlink" x="0px" y="0px"
	 viewBox="0 0 1000 1000" style="enable-background:new 0 0 1000 1000;" xml:space="preserve">
<style type="text/css">
	.st0{fill:#FF6200;}
	.st1{fill:#131921;}
	.st2{fill:#F7EEEB;}
	.st3{fill:none;}
	.st4{fill:url(#XMLID_00000047750456095599880040000009051353472628116613_);}
	.st5{fill:url(#XMLID_00000060025324917522047920000013905989240500628880_);}
</style>
<g>
	<path class="st1" d="M668,732.8H332c-7.3,0-13.3-6-13.3-13.3v-439c0-7.3,6-13.3,13.3-13.3h336c7.3,0,13.3,6,13.3,13.3v439
		C681.3,726.8,675.3,732.8,668,732.8z"/>
	<g>
		<path class="st0" d="M656.2,734.7H343.8c-14.9,0-27-12.1-27-27V292.3c0-14.9,12.1-27,27-27h312.3c14.9,0,27,12.1,27,27v415.3
			C683.2,722.5,671.1,734.7,656.2,734.7z M343.8,269.1c-12.8,0-23.2,10.4-23.2,23.2v415.3c0,12.8,10.4,23.2,23.2,23.2h312.3
			c12.8,0,23.2-10.4,23.2-23.2V292.3c0-12.8-10.4-23.2-23.2-23.2H343.8z"/>
	</g>
	<g>
		<g>
			<path class="st2" d="M445.5,548.5c0.1-0.1,0.2-0.2,0.4-0.4c6.6-7.2,14.1-15.4,21.2-24.4c-0.6-1.4-1.1-2.9-1.6-4.5l-0.2-0.5
				c-0.3-0.7-0.5-1.5-0.7-2.3c0-0.1-0.1-0.3-0.1-0.5c-5.1,10-12.5,20.3-22.6,30.8c-1.9-9.5-3.1-17.4-4.8-26.3
				c-1.6-7.2-3.8-15.3-6.9-20.3c-2.6-4.5-6.7-8.1-13.3-10v-11.2c0-8.6,6.9-17.4,16.5-17.4v-2.4h-52.7v2.4c9.8,0,16.7,8.8,16.7,17.4
				v114c0,8.6-6.9,17.4-16.7,17.4v2.4h52.7v-2.4c-9.5,0-16.5-8.8-16.5-17.4v-99.2c5,1.2,8.4,4.6,10.7,8.8c3.8,6.7,7,27.4,11,47.7
				c4.8,24.1,11.9,52.7,23.1,74.9c0.2,0.5,0.5,0.9,0.7,1.3v-10.3c-10.1-19.6-15.1-43.6-19.6-64.8
				C443.6,550.6,444.5,549.6,445.5,548.5z"/>
			<path class="st2" d="M591.9,628.6c-1.8,0-3.7,0-5.5,0.2c-1.3,0.1-2.7,0.2-4,0.5c-7.4,1.1-14.8,3.5-22.1,6.2
				c-1.4,0.5-2.8,1.1-4.2,1.6c-2.7,1.1-5.3,2.1-8,3.2c-16.4,6.4-33.4,12.4-51.5,7.6c-2.4-0.6-4.6-1.4-6.8-2.3c-1.3-0.6-2.7-1.3-4-2
				c-7.5-4.2-13.9-10.9-19.4-20c0,0-0.1-0.1-0.1-0.1v10.2c5.7,9.1,12,15.6,19.6,19.7c1.3,0.7,2.6,1.4,4,1.9c1,0.4,2,0.8,3,1.2
				c21.5,7.5,40.6,3,59.3-2c0.2-0.1,0.4-0.1,0.6-0.2c1.3-0.4,2.6-0.7,3.9-1.1c7.5-2.1,15.1-3.9,22.6-4.9c1.4-0.2,2.8-0.3,4.3-0.4
				c3.2-0.2,6.5-0.3,9.8,0c13.6,0.7,23.8,10,18.6,23.1h1.6C627,651.7,617.4,628.8,591.9,628.6z"/>
			<path class="st2" d="M556.5,653.2c-0.5,1.5-0.9,3.1-1.5,4.6c-8.9,24.7-27,44.3-51.9,44.3h-17.4V596.5h-0.1l-4.3-3.9l0-3.3v-1.6
				l0.7-1.4c0.9-1.8,1.5-3.8,1.8-5.9l0-0.4l0.1-0.3l0-0.6c0.2-1,0.3-2.2,0.4-3.5h-2.5c0,0-1.1-12.7-1.3-14.1c0-0.4,0-0.7-0.1-1
				c-2.9-3.1-7-5.1-11.5-5.1h10.7c-0.2-1.1-0.5-2.2-0.9-3.3h-29.4v2.4c9.8,0,16.7,8.8,16.7,17.4v114c0,8.5-6.9,17.4-16.7,17.4v2.4
				h59.9c34.9,0,58.7-24,68.5-53.1c0.5-1.4,0.9-2.8,1.3-4.2c1.8-6.2,2.9-12.7,3.3-19.1c-7.4,1.1-14.8,3.5-22.1,6.2
				C559.5,641.5,558.2,647.5,556.5,653.2z"/>
			<path class="st2" d="M540,567.2c7.7,6.6,13.2,15.6,16.6,25.8c2.8,8.1,4.3,17.4,4.5,26.7c0.1,3.8,0,7.5-0.4,11.3
				c7.1-2.6,14.4-4.8,21.9-5.9c0.1-2.4,0-4.7-0.1-7.1c-0.5-8.6-2.1-17.2-5.3-25c-6.4-16.4-18.5-29.9-37.3-36.6
				c-1.3-0.5-2.6-0.9-4-1.3c-2.2-0.6-4.5-1.2-6.9-1.6c-0.8,1.9-1.7,3.7-2.7,5.5c3.5,1.3,6.7,3,9.6,5.1
				C537.4,565.1,538.7,566.2,540,567.2z"/>
			<path class="st2" d="M536,603.9v-75.5c-0.9,8.5-3.2,17-6.9,25.2c-0.8,1.9-1.7,3.7-2.7,5.5c-1.1,2-2.2,4-3.5,6
				c-2,3.1-4.1,6.2-6.5,9.2v29.6c0,8.6-6.9,17.4-16.5,17.4v2.4h52.7v-2.4C543.2,621.2,536,612.4,536,603.9z"/>
			<path class="st2" d="M593,479.2c-9.5-5.7-22.9-9.1-40.5-9.1h-9.9c0.3,0.7,0.6,1.3,0.9,2l0.8,1.3h8.6c14.6,0,26.7,5.7,34.6,14.8
				c10.5,12.4,11.7,27.9,7.2,40.3c-3.8,10.3-11.2,18.1-18.6,20.3c-8.1,2.1-13.1-2.8-16.5-9.3c-3.2-6.2-4.4-13.1-6.4-19.4
				c-0.7,1.3-1.5,2.6-2.5,3.8c1.6,6.2,2.6,12.6,4.1,17.6c4,12.4,10.7,23.6,26,22.2c14.3-1.2,25.5-13.1,30.5-27.9
				C617.8,515.9,614,491.1,593,479.2z"/>
		</g>
		<g>
			<g>
				<g>
					<path class="st0" d="M529.4,521.7c-0.2,14-5,27.8-12.4,39.7c-7.5,11.9-17.6,21.9-29,30.2c17.8-13.1,29.6-32,35.1-53.3
						c3.3-13.3,0.5-26.8-3.3-39.6c-3.9-13.3-9.5-25.8-15-38.5c-2.8-6.6-5.1-13.2-6.7-20c-2.8-11.7-3.4-24.9-3-37.7
						c0.1-4.2,0.4-13.6,0.9-28.1c0,0,0-0.1-0.1-0.1c0,0-0.1,0-0.1,0c-2.1,5.5-4.2,11.3-6.4,17.3c-10.7,30.1-19.1,63.2-15.2,95.4
						c0,0.6,0.1,1.3,0.2,2c1.5,10.3,4.3,20.4,7.8,30.3c3.5,10,8.2,19.6,10.4,29.9c1.5,6.9,2,14.1,0.9,21.1c-0.6,4-1.2,7.6-1.8,10.8
						c-0.6,3-1.6,5.8-3.2,8.4c0,0-0.1,0-0.1,0c0,0,0-0.1,0-0.2c1.2-2.4,2-5.1,2.4-7.9c0.1-0.3,0.1-0.7,0.2-1.1
						c1.3-7.6-0.1-25-0.3-25.7c0-0.1-0.1-0.1-0.2-0.1c0,0-0.1,0.1-0.1,0.1c0,0-2,13.7-2,13.7c0,0.1,0,0.2-0.1,0.2
						c0,0-0.6-6.3-0.7-7.7c0-0.6-0.1-1.3-0.2-1.9c-0.5-4.9-1.9-9.6-3.7-14.2c-2-5.1-4.5-10.1-6.7-15.1c-1.8-4.2-3.5-8.3-5-12.6
						c-0.3-0.7-0.6-1.5-0.8-2.3c-9.9-30.1-7.6-62.7,0.3-93c4-15.4,9.1-30.5,14.6-45.5c5.3-13.9,12.7-33.4,22.4-58.5
						c0-0.1,0.1-0.1,0.1-0.1c0,0,0.1,0.1,0.1,0.1c-0.1,7.3-1.7,14.9-2.5,22.2c-0.8,7-1.5,14-2,21c-1.1,14.7-1.4,29.4-2,44.1
						c-0.5,13.5,0.4,27.3,4.2,40.3C513.8,471,529.9,494.3,529.4,521.7z"/>
				</g>
			</g>
			<g>
				<g>
					<g>
						<g>
							<path class="st0" d="M472.3,364.7c-0.3,14.6-3.5,29.6-9.7,44.7c-5.7,14.2-8.9,28.5-9.3,42.6c0,6.5,0.6,12.7,1.8,18.7
								c-2.5-5.6-4.4-11.9-5.3-18.4c-2-14.5,0.3-30.2,6.4-45.4c5.7-14,9.9-28.2,12.6-42.5c1.1-6.7,1.8-12.8,2.1-18.6
								C472,351.6,472.5,357.9,472.3,364.7z"/>
						</g>
					</g>
					<g>
						<path class="st0" d="M529.4,390.6c-2.6-3.6-4.8-7.6-6.6-12c-4.2-10.8-5.4-23.2-3.4-36c1.8-11.7,2.5-23.5,1.9-35
							c-0.4-4.8-0.9-9.1-1.6-13.2c1.6,3.9,3,8.2,4,12.9c2.4,11.2,2.7,23.4,0.8,36.1c-1.8,11.9-1.6,23.5,0.7,34.5
							C526.3,382.4,527.7,386.6,529.4,390.6z"/>
					</g>
					<g>
						<g>
							<path class="st0" d="M547.2,516.4c-2,3.6-4.6,6.8-7.9,9.6c2.1-4.1,3.6-7.8,4.5-11.2c2.5-9,1.2-16.6-4.2-23.9
								c-0.6-0.9-1.4-2.1-2.4-3.5c-0.3-0.4-0.6-0.9-0.9-1.3c-0.3-0.5-0.6-0.9-0.9-1.4c-1.2-1.8-2.3-3.9-3.3-6.1l-0.3-0.6
								c-1.9-5-2.7-10.3-2.2-15.1c0.4-4.2,1.7-8.2,3.7-11.9c-0.6,4.3-0.6,8.4,0,12.1c0.7,4.3,2.1,8.4,4.2,12.5l0.2,0.3
								c0.2,0.4,0.5,0.8,0.7,1.2l0.3,0.5c0.7,1.2,1.5,2.5,2.4,3.6c1.2,1.6,2.2,2.9,4.3,5.7c3,3.7,5,9.1,5.5,14.7
								C551.3,507.5,549.1,512.9,547.2,516.4z"/>
						</g>
					</g>
				</g>
			</g>
		</g>
	</g>
</g>
</svg>
